<svg xmlns="http://www.w3.org/2000/svg"><defs><font horiz-adv-x="1485"><font-face units-per-em="2048" ascent="1638" descent="-410"/><glyph unicode="ﬁ" horiz-adv-x="1209" d="M59 984v98h179v138q0 173 95.5 267t264.5 94q66 0 135-15t140-44l-19-103q-60 25-118 39t-131 14q-122 0-184.5-65t-62.5-187v-138h621v-981l163-13v-88h-445v88l163 13v883h-502v-883l163-13v-88h-446v88l163 13v883h-179z"/><glyph unicode="ﬂ" horiz-adv-x="1324" d="M75 0v88l163 13v883h-158v98h158v109q0 186 109 288t302 102q86 0 176.5-17.5t181.5-51.5h44v-1411l163-13v-88h-445v88l163 13v1328q-63 20-130 31.5t-146 11.5q-155 0-226.5-71t-71.5-210v-109h279v-98h-279v-883l163-13v-88h-446z"/><glyph horiz-adv-x="2048"/><glyph horiz-adv-x="2048"/><glyph horiz-adv-x="498"/><glyph horiz-adv-x="0"/><glyph horiz-adv-x="0"/><glyph horiz-adv-x="498"/><glyph horiz-adv-x="498"/><glyph horiz-adv-x="498"/><glyph unicode="!" horiz-adv-x="458" d="M143 0v167h142v-167h-142zm11 478v978h119v-978h-119z"/><glyph unicode=""" horiz-adv-x="711" d="M166 1083l2 255v222h102v-216l-33-261h-71zm239 0l3 258v219h102v-216l-33-261h-72z"/><glyph unicode="#" horiz-adv-x="1246" d="M63 410v93h272l83 441h-279v96h297l79 416h99l-79-416h315l79 416h99l-79-416h230v-96h-248l-83-441h256v-93h-274l-77-410h-99l77 410h-314l-77-410h-99l77 410h-255zm371 93h315l83 441h-315z"/><glyph unicode="$" horiz-adv-x="1097" d="M82 412l3 6h111q0-177 101.5-255t244.5-78q147 0 233.5 77.5t86.5 196.5q0 111-72 181t-254 134q-208 66-308 159t-100 262q0 162 100 264t272 116v202h102v-202q175-16 271.5-131t94.5-311l-3-5h-112q0 152-80.5 247t-223.5 95q-148 0-224.5-77.5t-76.5-195.5q0-114 68-183.5t261-133.5q206-69 305.5-160.5t99.5-258.5q0-166-103.5-265.5t-279.5-113.5v-190h-102v189q-181 12-300 116t-115 315z"/><glyph unicode="%" horiz-adv-x="1458" d="M77 1099v77q0 127 78.5 214t206.5 87 206.5-87 78.5-214v-77q0-126-78.5-212.5t-204.5-86.5q-129 0-208 86.5t-79 212.5zm97 0q0-88 49-150t141-62q89 0 137.5 62t48.5 150v77q0 88-49 151t-139 63-139-63-49-151v-77zm192-930l711 1138 74-48-711-1138zm444 110v78q0 126 78.5 213t205.5 87q128 0 207-87t79-213v-78q0-127-79-213.5t-205-86.5q-129 0-207.5 86.5t-78.5 213.5zm96 0q0-88 49-150.5t141-62.5q89 0 138 62t49 151v78q0 91-49 152t-140 61q-90 0-139-61.5t-49-151.5v-78z"/><glyph unicode="&" horiz-adv-x="1269" d="M74 371q0 120 72.5 216.5t209.5 196.5l14 10q-81 101-119.5 183.5t-38.5 169.5q0 158 88.5 244t243.5 86q144 0 228.5-81t84.5-204q0-91-45-155.5t-130-129.5l-158-122 411-480q49 71 76 159t27 187h111q0-128-37-235t-105-194l185-217-2-5h-138l-122 141q-85-78-186-120t-218-42q-209 0-330.5 107t-121.5 285zm119 0q0-124 85.5-207.5t247.5-83.5q92 0 179.5 36t157.5 103l-414 482-8.5 8.5-5.5 7.5-47-36q-115-94-155-170t-40-140zm139 778q0-66 31.5-138t95.5-150l177 132q59 45 83.5 94t24.5 105q0 79-53 131t-147 52q-102 0-157-65t-55-161z"/><glyph unicode="'" horiz-adv-x="438" d="M166 1090l8 266v204h102v-195l-39-275h-71z"/><glyph unicode="(" horiz-adv-x="636" d="M114 573v15q0 363 138.5 651t309.5 385h6l26-73q-145-103-253-366t-108-594v-20q0-331 108-594t253-370l-26-70h-6q-173 100-310.5 382t-137.5 654z"/><glyph unicode=")" horiz-adv-x="629" d="M11-393q144 102 252.5 367t108.5 597v20q0 329-110.5 595.5t-250.5 368.5l25 69 6 1q170-98 309.5-386t139.5-651v-15q0-372-138.5-654t-310.5-382l-6 1z"/><glyph unicode="*" horiz-adv-x="952" d="M66 1108l32 101 332-123-4 370h104l-8-373 324 127 33-101-333-115 223-294-86-63-213 305-204-303-85 61 217 300z"/><glyph unicode="+" horiz-adv-x="1145" d="M73 628v112h434v466h120v-466h444v-112h-444v-482h-120v482h-434z"/><glyph unicode="," horiz-adv-x="392" d="M60-229q47 66 69.5 131t22.5 144v142h119v-140q0-92-37.5-180t-102.5-149z"/><glyph unicode="-" horiz-adv-x="793" d="M154 570v101h478v-101h-478z"/><glyph unicode="." horiz-adv-x="466" d="M145 0v164h137v-164h-137z"/><glyph unicode="/" horiz-adv-x="798" d="M0-125l608 1581h108l-608-1581h-108z"/><glyph unicode="0" horiz-adv-x="1158" d="M121 565v325q0 281 119.5 434t331.5 153q213 0 333.5-153t120.5-434v-325q0-282-119.5-434t-332.5-152q-212 0-332.5 152.5t-120.5 433.5zm119-18q0-222 86.5-344.5t247.5-122.5q162 0 247 122t85 345v363q0 224-85.5 344.5t-248.5 120.5q-162 0-247-121t-85-344v-363z"/><glyph unicode="1" horiz-adv-x="831" d="M88 1288v84l407 88v-1359l261-13v-88h-642v88l261 13v1228z"/><glyph unicode="2" horiz-adv-x="1116" d="M76 1043q-5 182 117.5 308t333.5 126q188 0 300.5-108t112.5-290q0-120-75.5-243.5t-209.5-275.5l-402-454 2-5h635l10 205h106v-306h-905v92l477 541q133 150 187.5 250t54.5 192q0 135-77 217.5t-216 82.5q-166 0-252-92t-86-246h-111z"/><glyph unicode="3" horiz-adv-x="1102" d="M75 389l2 6h111q0-139 96.5-227t249.5-88q155 0 242 80.5t87 230.5q0 153-91 226.5t-260 73.5h-138v102h138q159 0 241 79.5t82 204.5q0 136-77 217t-228 81q-141 0-230.5-82.5t-89.5-217.5h-112l-2 6q-5 170 119.5 283t314.5 113q194 0 309.5-107t115.5-297q0-103-64-193.5t-180-134.5q136-39 203.5-131.5t67.5-218.5q0-194-125.5-305t-322.5-111q-191 0-327.5 108.5t-131.5 301.5z"/><glyph unicode="4" horiz-adv-x="1178" d="M63 368v68l670 1020h131v-987h228v-101h-228v-267l163-13v-88h-445v88l163 13v267h-682zm142 101h540v830l-6 2-51-109z"/><glyph unicode="5" horiz-adv-x="1070" d="M97 377l2 6h107q0-147 83-225t222-78q163 0 243.5 98t80.5 284q0 163-80.5 261.5t-225.5 98.5q-140 0-213.5-44.5t-106.5-134.5l-97 16 80 797h732v-237h-97l-12 126h-520l-54-519q55 50 121 77t179 30q186 3 300-125t114-344q0-221-111-353t-333-132q-180 0-299.5 100.5t-114.5 297.5z"/><glyph unicode="6" horiz-adv-x="1124" d="M121 562v265q0 318 138.5 484t355.5 166q75 0 148-17t130-49l-29-96q-57 31-114 45.5t-135 14.5q-169 0-272-133t-103-404v-49q60 78 153 125t206 47q196 0 310-135t114-352q0-215-122.5-355t-318.5-140q-203 0-332 152.5t-129 430.5zm119-9q0-227 95-350t247-123q146 0 233.5 114.5t87.5 279.5q0 175-85 282t-243 107q-121 0-211.5-63t-123.5-162v-85z"/><glyph unicode="7" horiz-adv-x="1115" d="M76 1149v307h955v-102q-236-279-361.5-568t-167.5-664l-10-122h-120l10 122q43 371 174.5 670.5t350.5 561.5h-717l-8-205h-106z"/><glyph unicode="8" horiz-adv-x="1127" d="M92 386q0 129 79 224.5t212 136.5q-115 40-182.5 128t-67.5 206q0 188 118.5 292t307.5 104q187 0 307.5-104.5t120.5-291.5q0-118-68.5-206.5t-183.5-128.5q132-41 212.5-137t80.5-223q0-196-131-301.5t-336-105.5q-210 0-339.5 105t-129.5 302zm119-1q0-143 97-224t253-81q151 0 249.5 81.5t98.5 223.5q0 138-100.5 224.5t-249.5 86.5q-152 0-250-86.5t-98-224.5zm41 697q0-129 86-206.5t223-77.5q133 0 220 77.5t87 206.5q0 126-89 209.5t-220 83.5q-135 0-221-80t-86-213z"/><glyph unicode="9" horiz-adv-x="1138" d="M84 958q0 221 127 370t316 149q213 0 338.5-139t125.5-420v-305q0-319-131.5-476.5t-354.5-157.5q-77 0-156 15t-150 46l22 100q68-32 134.5-46t149.5-14q170 0 266 130t96 401v42q-54-91-143-140.5t-198-49.5q-199 0-320.5 137.5t-121.5 357.5zm124 0q0-169 85.5-281.5t232.5-112.5q130 0 217 66.5t124 164.5v132q0 226-89.5 337t-245.5 111q-141 0-232.5-122t-91.5-295z"/><glyph unicode=":" horiz-adv-x="389" d="M131 0v164h137v-164h-137zm0 916v164h137v-164h-137z"/><glyph unicode=";" horiz-adv-x="391" d="M65-229q47 66 69.5 131t22.5 144v142h119v-140q0-92-37.5-180t-102.5-149zm70 1147v164h137v-164h-137z"/><glyph unicode="<" horiz-adv-x="1022" d="M76 501v97l827 378v-126l-614-272-108-28v-6l108-28 614-268v-126z"/><glyph unicode="=" horiz-adv-x="1127" d="M147 422v106h834v-106h-834zm0 411v106h834v-106h-834z"/><glyph unicode=">" horiz-adv-x="1056" d="M125 113v124l631 274 108 27v6l-108 29-631 271v123l844-378v-97z"/><glyph unicode="?" horiz-adv-x="925" d="M66 1122q-3 165 103.5 260t272.5 95q179 0 280.5-101t101.5-273q0-135-66.5-239.5t-188.5-218.5q-62-53-75.5-99t-13.5-142h-119q1 131 22 182.5t114 136.5q107 110 157 186.5t50 192.5q0 128-68 198t-194 70q-118 0-190-68.5t-73-185.5h-111zm292-1122v154h138v-154h-138z"/><glyph unicode="@" horiz-adv-x="1809" d="M86 478q18 424 252.5 683t609.5 259q391 0 587.5-241.5t179.5-665.5q-10-216-117-375t-313-159q-78 0-131 51t-69 141q-53-96-130.5-144t-180.5-48q-131 0-199 119.5t-49 317.5q23 254 141 407.5t286 153.5q93 0 150.5-27t126.5-81l-2-2h3l-50-574q-10-132 30-180t95-48q142 0 224.5 124.5t92.5 323.5q19 389-149 604.5t-530 215.5q-324 0-533.5-235.5t-226.5-619.5q-19-379 163.5-612.5t519.5-233.5q88 0 178 22t152 57l31-75q-64-41-167-65t-198-24q-380 0-588 249.5t-189 681.5zm550-62q-16-155 26-247t138-92q86 0 156 43t123 157v8.5l1 7.5 47 543q-32 23-71.5 36.5t-86.5 13.5q-134 0-222-119t-111-351z"/><glyph unicode="A" d="M55 0v88l107 8 517 1360h113l512-1360 109-8v-88h-359v88l127 10-120 326h-654l-121-326 127-10v-88h-358zm392 531h575l-283 770h-6z"/><glyph unicode="B" horiz-adv-x="1322" d="M71 0v88l163 13v1253l-163 13v89h588q227 0 353.5-95.5t126.5-287.5q0-112-63.5-195t-172.5-115q133-24 216-125t83-233q0-195-126.5-300t-338.5-105h-666zm282 101h384q161 0 253 79.5t92 222.5q0 131-83.5 215t-242.5 84h-403v-601zm0 702h335q158 0 244.5 69.5t86.5 204.5q0 138-92 207.5t-268 69.5h-306v-551z"/><glyph unicode="C" horiz-adv-x="1349" d="M103 718v19q0 325 177.5 532.5t464.5 207.5q162 0 289.5-63.5t195.5-157.5v-256h-93l-17 221q-58 69-151 111.5t-215 42.5q-244 0-388-177.5t-144-458.5v-21q0-281 142.5-459.5t374.5-178.5q123 0 223.5 43t157.5 111l17 221h93v-256q-68-94-198.5-157t-292.5-63q-280 0-458 207.5t-178 531.5z"/><glyph unicode="D" horiz-adv-x="1401" d="M71 0v88l163 13v1253l-163 13v89h586q267 0 441-178t174-457v-187q0-280-174-457t-441-177h-586zm282 101h304q216 0 355.5 151t139.5 382v190q0 228-140 379t-355 151h-304v-1253z"/><glyph unicode="E" horiz-adv-x="1286" d="M71 0v88l163 13v1253l-163 13v89h1080v-320h-106l-9 218h-683v-547h597v-102h-597v-604h688l9 218h106v-319h-1085z"/><glyph unicode="F" horiz-adv-x="1258" d="M71 0v88l163 13v1253l-163 13v89h1092v-320h-106l-9 218h-695v-569h608v-103h-608v-581l163-13v-88h-445z"/><glyph unicode="G" horiz-adv-x="1420" d="M95 718v31q0 324 178 526t467 202q164 0 290-54.5t205-149.5v-253h-93l-21 213q-59 65-153 103.5t-219 38.5q-248 0-391-174t-143-450v-33q0-284 140.5-461t379.5-177q142 0 243 37t142 79v353l-280 5v97h399v-491q-52-64-181-122.5t-323-58.5q-284 0-462 205t-178 534z"/><glyph unicode="H" horiz-adv-x="1537" d="M71 0v88l163 13v1253l-163 13v89h445v-89l-163-13v-582h828v582l-163 13v89h445v-89l-163-13v-1253l163-13v-88h-445v88l163 13v569h-828v-569l163-13v-88h-445z"/><glyph unicode="I" horiz-adv-x="627" d="M91 0v88l163 13v1253l-163 13v89h446v-89l-163-13v-1253l163-13v-88h-446z"/><glyph unicode="J" horiz-adv-x="1158" d="M54 395l2 6h112q0-158 84-239.5t240-81.5q133 0 219 90.5t86 242.5v941l-163 13v89h446v-89l-163-13v-941q0-199-118.5-316.5t-306.5-117.5q-205 0-324 106-114 102-114 294v16z"/><glyph unicode="K" horiz-adv-x="1417" d="M71 0v88l163 13v1253l-163 13v89h445v-89l-163-13v-568h199l490 573-140 8v89h407v-89l-128-12-521-615 562-640 131-12v-88h-415v88l138 8-523 589h-200v-584l163-13v-88h-445z"/><glyph unicode="L" horiz-adv-x="1178" d="M71 0v88l163 13v1253l-163 13v89h446v-89l-163-13v-1253h605l9 205h106v-306h-1003z"/><glyph unicode="M" horiz-adv-x="1861" d="M71 0v88l163 13v1253l-163 13v89h320l535-1282h6l537 1282h321v-89l-163-13v-1253l163-13v-88h-445v88l163 13v542l10 637-6 2-541-1282h-83l-540 1276-6-1 11-632v-542l163-13v-88h-445z"/><glyph unicode="N" horiz-adv-x="1536" d="M71 0v88l163 13v1253l-163 13v89h283l827-1250 6 1v1147l-163 13v89h445v-89l-163-13v-1354h-119l-827 1252-6-1v-1150l163-13v-88h-446z"/><glyph unicode="O" horiz-adv-x="1468" d="M106 718v19q0 327 172 533.5t448 206.5q280 0 455.5-206.5t175.5-533.5v-19q0-328-175-533.5t-455-205.5q-276 0-448.5 206t-172.5 533zm120 0q0-285 135-460t366-175q237 0 373.5 174.5t136.5 460.5v21q0 283-138 458t-373 175q-231 0-365.5-175t-134.5-458v-21z"/><glyph unicode="P" horiz-adv-x="1276" d="M71 0v88l163 13v1253l-163 13v89h614q229 0 354.5-116.5t125.5-308.5q0-194-125.5-310t-354.5-116h-332v-504l163-13v-88h-445zm282 707h332q180 0 270.5 91.5t90.5 230.5q0 140-90 232.5t-271 92.5h-332v-647z"/><glyph unicode="Q" horiz-adv-x="1463" d="M106 718v19q0 327 172 533.5t448 206.5q280 0 455.5-206.5t175.5-533.5v-19q0-213-77.5-379.5t-215.5-259.5l301-215-83-76-328 233q-53-21-110-31.5t-117-10.5q-276 0-448.5 206t-172.5 533zm120 0q0-285 135-460t366-175q237 0 373.5 174.5t136.5 460.5v21q0 283-138 458t-373 175q-231 0-365.5-175t-134.5-458v-21z"/><glyph unicode="R" horiz-adv-x="1374" d="M71 0v87l163 14v1252l-163 14v88h605q234 0 359.5-102t125.5-295q0-114-67-205t-189-132q135-34 194.5-121.5t59.5-220.5v-133q0-77 24-114t73-40l49-3v-89h-76q-106 0-148 72t-42 176v129q0 132-84.5 209.5t-235.5 80.5h-366v-566l163-14v-87h-445zm282 769h309q197 0 288 79t91 211q0 140-91 217t-274 77h-323v-584z"/><glyph unicode="S" horiz-adv-x="1220" d="M109 191v255h98l17-213q66-75 169-114t224-39q172 0 278.5 76t106.5 201q0 119-89 194.5t-310 133.5q-239 60-362 156t-123 259q0 167 140 272t361 105q159 0 283.5-55t196.5-149v-249h-98l-17 206q-54 68-147 106.5t-218 38.5q-180 0-280.5-78t-100.5-194q0-110 90.5-183.5t313.5-129.5q235-60 357.5-162t122.5-269q0-174-142-277t-363-103q-156 0-289.5 55t-218.5 157z"/><glyph unicode="T" horiz-adv-x="1280" d="M60 1149v307h1158v-307h-106l-9 205h-404v-1253l163-13v-88h-446v88l163 13v1253h-404l-8-205h-107z"/><glyph unicode="U" horiz-adv-x="1487" d="M60 1367v89h445v-89l-163-13v-885q0-186 110-287.5t287-101.5q180 0 293 101t113 288v885l-163 13v89h445v-89l-163-13v-885q0-238-145.5-364t-379.5-126q-230 0-373 126.5t-143 363.5v885z"/><glyph unicode="V" horiz-adv-x="1455" d="M52 1367v89h378v-89l-136-11 402-1110 29-97h6l29 97 401 1110-136 11v89h378v-89l-113-9-506-1358h-113l-507 1358z"/><glyph unicode="W" horiz-adv-x="1937" d="M43 1367v89h380v-89l-148-11 230-944 44-222h6l54 222 320 1044h113l319-1044 53-225 6 1 47 224 227 944-148 11v89h380v-89l-109-8-339-1359h-113l-339 1117-38 153h-6l-36-153-342-1117h-113l-339 1359z"/><glyph unicode="X" horiz-adv-x="1397" d="M54 0v88l122 10 453 640-438 619-122 10v89h400v-89l-139-6 368-532 369 532-137 6v89h399v-89l-122-10-437-619 453-640 123-10v-88h-399v88l137 6-384 553-385-553 138-6v-88h-399z"/><glyph unicode="Y" horiz-adv-x="1423" d="M55 1367v89h400v-89l-140-10 394-710 396 710-140 10v89h401v-89l-124-10-474-825v-431l163-13v-88h-446v88l163 13v438l-470 818z"/><glyph unicode="Z" horiz-adv-x="1220" d="M92 0v92l857 1262h-716l-8-205h-107v307h977v-87l-861-1268h778l9 205h107v-306h-1036z"/><glyph unicode="[" horiz-adv-x="548" d="M157-312v1976h329v-102h-210v-1772h210v-102h-329z"/><glyph unicode="\" horiz-adv-x="810" d="M36 1456h116l608-1581h-116z"/><glyph unicode="]" horiz-adv-x="526" d="M23-210h210v1772h-210v102h330v-1976h-330v102z"/><glyph unicode="^" horiz-adv-x="844" d="M71 729l299 727h89l299-727h-116l-197 484-29 105h-6l-30-105-194-484h-115z"/><glyph unicode="_" horiz-adv-x="1149" d="M119 0h881v-101h-881v101z"/><glyph unicode="`" horiz-adv-x="562" d="M84 1471l2 5h154l202-266h-117z"/><glyph unicode="a" horiz-adv-x="1130" d="M104 283q0 150 129 238t350 88h239v143q0 116-74.5 182t-208.5 66q-90 0-164.5-24.5t-124.5-66.5l-10-145h-99l1 208q75 58 179.5 94t222.5 36q179 0 288-91t109-261v-532q0-33 1.5-63.5t6.5-59.5l108-7v-88h-213q-12 55-17 95t-5 81q-60-85-160-141t-225-56q-159 0-246 82t-87 222zm119-4q0-87 60.5-140.5t166.5-53.5q130 0 229 60t143 155v217h-241q-163 0-260.5-67.5t-97.5-170.5z"/><glyph unicode="b" horiz-adv-x="1133" d="M-8 1471v89h282v-648q54 91 138 140.5t200 49.5q195 0 305-155.5t110-414.5v-21q0-243-110-387.5t-303-144.5q-119 0-205 47.5t-139 136.5l-13-163h-102v1458zm282-1183q40-94 119.5-149.5t198.5-55.5q156 0 235 116t79 312v21q0 207-80 336.5t-236 129.5q-126 0-202.5-62t-113.5-159v-489z"/><glyph unicode="c" horiz-adv-x="1094" d="M97 520v42q0 236 121 388t340 152q125 0 229-47t169-128l5-236h-102l-19 192q-48 54-119.5 85.5t-162.5 31.5q-174 0-257.5-124.5t-83.5-313.5v-42q0-192 83-316t259-124q119 0 210 68t91 189h106l2-6v-12q0-142-120-239-124-101-289-101-220 0-341 151.5t-121 389.5z"/><glyph unicode="d" horiz-adv-x="1216" d="M97 511v21q0 259 109.5 414.5t305.5 155.5q113 0 196-47.5t138-135.5v539l-163 13v89h283v-1459l163-13v-88h-270l-10 156q-54-85-139-131t-200-46q-194 0-303.5 145t-109.5 387zm121 0q0-196 78.5-312t236.5-116q115 0 192.5 52t120.5 143v512q-40 92-115.5 150t-195.5 58q-158 0-237.5-129.5t-79.5-336.5v-21z"/><glyph unicode="e" horiz-adv-x="1102" d="M102 509v55q0 232 133.5 385t322.5 153q199 0 313-126t114-336v-102h-764v-29q0-182 97.5-305.5t255.5-123.5q111 0 190 31t135 89l51-82q-61-64-154-101.5t-222-37.5q-204 0-338 149.5t-134 380.5zm128 135l2-5h634v30q0 141-83 236t-225 95q-132 0-222.5-101.5t-105.5-254.5z"/><glyph unicode="f" horiz-adv-x="725" d="M80 984v98h179v158q0 163 82 252t229 89q32 0 66-5t69-14l-15-99q-24 6-49 9.5t-59 3.5q-98 0-150.5-62t-52.5-174v-158h258v-98h-258v-883l163-13v-88h-446v88l163 13v883h-179z"/><glyph unicode="g" horiz-adv-x="1148" d="M102 511v21q0 259 110.5 414.5t306.5 155.5q115 0 199.5-50.5t139.5-142.5l14 173h101v-1068q0-209-113-330t-315-121q-78 0-166.5 19t-154.5 52l32 101q65-31 136.5-48t150.5-17q154 0 232 91t78 253v137q-55-83-139-127.5t-197-44.5q-195 0-305 145t-110 387zm120 0q0-195 79.5-311.5t237.5-116.5q117 0 194.5 53t119.5 146v502q-40 95-115 154.5t-197 59.5q-158 0-238.5-130t-80.5-336v-21z"/><glyph unicode="h" horiz-adv-x="1298" d="M62 0v88l163 13v1357l-163 13v89h282v-663q54 97 144 151t210 54q171 0 262.5-106t91.5-329v-566l163-13v-88h-446v88l163 13v568q0 176-69.5 252.5t-191.5 76.5q-123 0-205.5-64.5t-121.5-171.5v-661l163-13v-88h-445z"/><glyph unicode="i" horiz-adv-x="638" d="M89 0v88l163 13v879l-163 13v89h282v-981l163-13v-88h-445zm163 1392v168h119v-168h-119z"/><glyph unicode="j" horiz-adv-x="562" d="M-13-418l13 101q15-5 42.5-10t49.5-5q90 0 140 61.5t50 181.5v1069l-163 13v89h283v-1171q0-167-80-257.5t-223-90.5q-31 0-57.5 5t-54.5 14zm289 1814v164h120v-164h-120z"/><glyph unicode="k" horiz-adv-x="1194" d="M62 0v88l163 13v1357l-163 13v89h282v-930h127l329 351-2 5-99 7v89h381v-89l-126-12-370-393 421-489 120-11v-88h-380v88l114 7-376 432h-139v-426l163-13v-88h-445z"/><glyph unicode="l" horiz-adv-x="610" d="M73 0v88l163 13v1357l-163 13v89h282v-1459l163-13v-88h-445z"/><glyph unicode="m" horiz-adv-x="1959" d="M71 0v88l163 13v879l-163 13v89h269l11-179q52 95 139 147t207 52q124 0 207-60.5t119-184.5q49 114 139.5 179.5t220.5 65.5q173 0 267.5-115t94.5-356v-529l163-14v-88h-447v88l163 14v531q0 200-70.5 282.5t-196.5 82.5q-140 0-215.5-89t-93.5-227q0-8 .5-15t.5-18v-548l163-13v-88h-446v88l163 13v532q0 196-71.5 280.5t-196.5 84.5q-128 0-202.5-64.5t-104.5-173.5v-659l163-13v-88h-446z"/><glyph unicode="n" horiz-adv-x="1319" d="M75 0v88l163 13v879l-163 13v89h269l11-189q52 100 140.5 154.5t209.5 54.5q176 0 268-107.5t92-335.5v-558l163-13v-88h-446v88l163 13v557q0 186-69.5 263t-197.5 77q-126 0-205.5-66.5t-114.5-176.5v-654l163-13v-88h-446z"/><glyph unicode="o" horiz-adv-x="1152" d="M97 524v33q0 239 131 392t347 153q217 0 348-153t131-392v-33q0-240-130.5-392.5t-346.5-152.5q-218 0-349 152.5t-131 392.5zm120 0q0-188 95-316t265-128q167 0 262 128t95 316v33q0 185-95.5 314t-263.5 129-263-129-95-314v-33z"/><glyph unicode="p" horiz-adv-x="1197" d="M65-327l163 13v1294l-163 13v89h263l15-168q55 90 140.5 139t200.5 49q195 0 305-155.5t110-414.5v-21q0-243-110-387.5t-303-144.5q-114 0-199.5 43.5t-139.5 123.5v-460l163-13v-89h-445v89zm282 598q41-89 118.5-140t193.5-51q157 0 238.5 118t81.5 313v21q0 206-82 336t-240 130q-121 0-196.5-57.5t-113.5-149.5v-520z"/><glyph unicode="q" horiz-adv-x="1144" d="M97 511v21q0 259 109.5 414.5t305.5 155.5q112 0 194.5-46.5t137.5-133.5l12 160h105v-1396l163-13v-89h-446v89l163 13v456q-55-79-138-121t-193-42q-194 0-303.5 145t-109.5 387zm121 0q0-196 78.5-313.5t236.5-117.5q112 0 188.5 50.5t119.5 138.5v528q-42 89-116.5 146t-189.5 57q-158 0-237.5-130.5t-79.5-337.5v-21z"/><glyph unicode="r" horiz-adv-x="823" d="M89 0v88l163 13v879l-163 13v89h267l15-180v-13q46 100 125.5 156.5t188.5 56.5q23 0 44.5-3.5t35.5-7.5l-16-112-89 6q-113 0-185.5-63.5t-103.5-174.5v-646l163-13v-88h-445z"/><glyph unicode="s" horiz-adv-x="1025" d="M116 107v218h97l17-154q48-48 121.5-69.5t153.5-21.5q130 0 205 57t75 138q0 76-62.5 133t-225.5 93q-193 42-286.5 111.5t-93.5 194.5q0 124 105 209.5t277 85.5q119 0 217.5-36.5t160.5-98.5l5-219h-98l-14 153q-45 47-113.5 73t-157.5 26q-131 0-196.5-56.5t-65.5-132.5q0-75 56.5-124t225.5-86q193-43 289-117.5t96-202.5q0-135-109.5-218.5t-289.5-83.5q-120 0-218.5 33.5t-170.5 94.5z"/><glyph unicode="t" horiz-adv-x="733" d="M65 984v98h186v277h121v-277h238v-98h-238v-705q0-106 38.5-150.5t102.5-44.5q29 0 56.5 2.5t63.5 8.5l18-89q-30-13-73-20t-86-7q-114 0-177.5 72t-63.5 228v705h-186z"/><glyph unicode="u" horiz-adv-x="1232" d="M46 993v89h253v-629q0-198 67.5-284t191.5-86q136 0 216.5 60t113.5 166v671l-154 13v89h274v-981l145-13v-88h-250l-11 178q-51-95-139.5-147t-208.5-52q-171 0-267.5 116t-96.5 360v525z"/><glyph unicode="v" horiz-adv-x="1155" d="M47 993v89h364v-89l-135-10 270-712 35-127h6l38 127 266 712-135 10v89h364v-89l-106-9-382-984h-96l-383 984z"/><glyph unicode="w" horiz-adv-x="1690" d="M56 993v89h363v-89l-136-11 175-631 41-193h6l51 193 231 731h102l231-731 52-198h6l45 198 170 631-136 11v89h364v-89l-105-8-287-985h-102l-241 740-47 187h-6l-47-187-237-740h-102l-286 985z"/><glyph unicode="x" horiz-adv-x="1192" d="M73 0v88l121 11 342 452-326 431-122 11v89h367v-89l-112-6 258-347 259 348-111 5v89h367v-89l-121-11-326-431 341-452 122-11v-88h-366v88l111 5-275 368-274-368 111-5v-88h-366z"/><glyph unicode="y" horiz-adv-x="1174" d="M46 993v89h372v-89l-129-10 264-690 38-130h6l296 820-132 10v89h374v-89l-110-9-437-1157q-42-110-109-187t-196-77q-21 0-51 4.5t-44 9.5l14 100q12-2 38.5-4.5t37.5-2.5q79 0 125 55t81 143l56 145-384 971z"/><glyph unicode="z" horiz-adv-x="1080" d="M116 0v88l652 891h-534l-8-204h-107v307h800v-89l-656-892h588l9 205h107v-306h-851z"/><glyph unicode="{" horiz-adv-x="697" d="M63 543v104q118 0 174.5 67.5t56.5 189.5v228q0 171 77 290.5t260 174.5l27-79q-128-41-186.5-141.5t-58.5-244.5v-228q0-110-45.5-191t-137.5-118q92-39 137.5-120.5t45.5-190.5v-226q0-143 59.5-241.5t187.5-140.5l-29-80q-183 55-260 173.5t-77 288.5v226q0 122-56.5 190.5t-174.5 68.5z"/><glyph unicode="|" horiz-adv-x="426" d="M150-270v1726h101v-1726h-101z"/><glyph unicode="}" horiz-adv-x="696" d="M27-324q127 42 186.5 141t59.5 241v226q0 112 47.5 193t146.5 117q-99 35-146.5 116t-47.5 194v228q0 144-58.5 244.5t-185.5 141.5l26 79q182-55 260-174.5t78-290.5v-228q0-122 56-189.5t175-67.5v-104q-119 0-175-68.5t-56-190.5v-226q0-170-77.5-288.5t-260.5-173.5z"/><glyph unicode="~" horiz-adv-x="1376" d="M121 474q0 131 79 222t201 91q87 0 161-37.5t162-112.5q64-57 117-82.5t111-25.5q76 0 130.5 64.5t54.5 161.5l97-15q0-129-81-223t-201-94q-88 0-160.5 35.5t-160.5 114.5q-64 53-119 80t-111 27q-79 0-131.5-60.5t-52.5-160.5z"/><glyph unicode="¡" horiz-adv-x="456" d="M142 898v184h142v-184h-142zm11-1272v978h119v-978h-119z"/><glyph unicode="¢" horiz-adv-x="1088" d="M124 520v42q0 219 104.5 366.5t297.5 169.5v220h120v-219q106-12 193-57t144-115l5-236h-102l-19 192q-48 54-119.5 85.5t-162.5 31.5q-174 0-257.5-124.5t-83.5-313.5v-42q0-192 83-316t259-124q119 0 210 68t91 189h107l2-6q4-135-99.5-232.5t-250.5-115.5v-228h-120v228q-193 21-297.5 169t-104.5 368z"/><glyph unicode="£" horiz-adv-x="1164" d="M68 642v102h203l-11 296q0 204 106 320.5t284 116.5q186 0 280-103.5t91-277.5l-3-6h-111q0 148-69 216.5t-188 68.5q-125 0-198-88t-73-247l11-296h451v-102h-448l7-176q0-107-25.5-204t-71.5-161h654l10 205h106v-306h-941v101h10q70 15 104.5 129.5t34.5 235.5l-7 176h-206z"/><glyph unicode="¤" horiz-adv-x="1461" d="M94 60l159 161q-60 81-92 179t-32 208q0 112 34.5 214t98.5 184l-168 171 85 87 166-170q78 67 175 103.5t204 36.5q106 0 203.5-37t176.5-104l169 172 87-88-171-175q62-82 96-182.5t34-211.5q0-108-32-206.5t-90-177.5l163-164-87-87-157 160q-81-74-181.5-113.5t-210.5-39.5q-111 0-211 39.5t-179 112.5l-155-158zm148 548q0-215 141-366t341-151q198 0 339.5 151t141.5 366q0 213-141.5 363.5t-339.5 150.5q-200 0-341-150.5t-141-363.5z"/><glyph unicode="¥" horiz-adv-x="1383" d="M59 1367v89h373v-89l-106-9 367-626 366 626-106 9v89h374v-89l-132-10-395-652h371v-87h-420v-206h420v-86h-420v-225l163-13v-88h-446v88l163 13v225h-415v86h415v206h-415v87h369l-395 652z"/><glyph unicode="¦" horiz-adv-x="461" d="M150-270v771h119v-771h-119zm0 968v758h119v-758h-119z"/><glyph unicode="§" horiz-adv-x="1213" d="M90-70l2 6 111 2q0-173 113-252t271-79q163 0 256 70.5t93 181.5q0 106-77.5 166t-292.5 121q-242 61-359 149t-117 256q0 98 58.5 169t164.5 105q-90 49-134 119.5t-44 175.5q0 161 128 259t342 98q222 0 346.5-111.5t120.5-313.5l-2-6h-112q0 141-94 235t-259 94q-173 0-262-71t-89-181q0-114 74-173t299-122q247-65 360-148.5t113-248.5q0-98-61-168.5t-171-103.5q94-50 141-120.5t47-177.5q0-166-127-261t-342-95q-212 0-357 102.5t-140 322.5zm119 623q0-116 79-175t323-127q34-10 65-19t60-18q115 13 180 71.5t65 142.5q0 107-85.5 170t-318.5 131q-40 9-75.5 19.5t-66.5 22.5q-113-14-169.5-73t-56.5-145z"/><glyph unicode="¨" horiz-adv-x="972" d="M152 1299v157h174v-157h-174zm470 0v157h173v-157h-173z"/><glyph unicode="©" horiz-adv-x="1595" d="M92 729q0 315 207 531t503 216q295 0 502-216t207-531q0-316-207.5-533t-501.5-217q-296 0-503 217t-207 533zm85 0q0-279 182.5-471.5t442.5-192.5q257 0 440 192.5t183 471.5q0 277-182.5 468.5t-440.5 191.5q-260 0-442.5-191.5t-182.5-468.5zm281-60v119q0 172 91 279.5t242 107.5q148 0 231-79t79-228l-2-6h-91q0 113-55.5 168t-161.5 55q-110 0-171.5-83.5t-61.5-212.5v-120q0-132 61.5-214.5t171.5-82.5q107 0 161.5 54t54.5 170h91l2-6q4-150-78.5-229t-230.5-79q-151 0-242 106.5t-91 280.5z"/><glyph unicode="ª" horiz-adv-x="875" d="M106 920q0 105 78.5 163t228.5 58h183v61q0 85-41.5 131.5t-120.5 46.5q-92 0-142-37.5t-50-108.5l-100 9-2 6q-5 98 77.5 163t216.5 65q124 0 197.5-71.5t73.5-204.5v-314q0-50 6-94t20-87h-111q-9 25-14.5 52.5t-7.5 55.5q-37-53-98.5-87.5t-144.5-34.5q-119 0-184 61t-65 167zm108 4q0-66 39-101.5t121-35.5q70 0 136 38.5t86 85.5v146h-182q-95 0-147.5-38.5t-52.5-94.5z"/><glyph unicode="«" horiz-adv-x="919" d="M83 511v19l295 379h105l-276-389 276-388h-105zm309 0v19l295 379h105l-276-389 276-388h-105z"/><glyph unicode="¬" horiz-adv-x="1112" d="M121 670v106h811v-390h-119v284h-692z"/><glyph unicode="­" horiz-adv-x="793" d="M154 570v101h478v-101h-478z"/><glyph unicode="®" horiz-adv-x="1595" d="M92 729q0 315 207 531t503 216q295 0 502-216t207-531q0-316-207.5-533t-501.5-217q-296 0-503 217t-207 533zm85 0q0-279 182.5-471.5t442.5-192.5q257 0 440 192.5t183 471.5q0 277-182.5 468.5t-440.5 191.5q-260 0-442.5-191.5t-182.5-468.5zm364-413v850h258q147 0 226-63t79-185q0-68-36.5-117t-104.5-80q68-25 98-78t30-128v-56q0-40 4-73t13-54v-16h-102q-9 21-11 61.5t-2 82.5v54q0 84-38.5 121t-127.5 37h-188v-356h-98zm98 447h181q79 0 133 40.5t54 112.5q0 85-46.5 122t-161.5 37h-160v-312z"/><glyph unicode="¯" horiz-adv-x="1005" d="M154 1359v97h670v-97h-670z"/><glyph unicode="°" horiz-adv-x="747" d="M124 1227q0 102 72 176t173 74q98 0 169.5-74t71.5-176q0-104-71-175.5t-170-71.5q-102 0-173.5 71.5t-71.5 175.5zm89 0q0-67 45-111.5t111-44.5q65 0 108.5 44t43.5 112-43.5 113.5-108.5 45.5q-66 0-111-46t-45-113z"/><glyph unicode="±" horiz-adv-x="1082" d="M75 728v101h414v438h111v-438h391v-101h-391v-439h-111v439h-414zm107-680v102h835v-102h-835z"/><glyph unicode="²" horiz-adv-x="816" d="M113 667v90l315 282q77 70 104 115t27 92q0 65-38.5 103.5t-117.5 38.5q-87 0-134-42t-47-108h-100l-2 6q-6 97 72.5 166t210.5 69q124 0 195-60.5t71-173.5q0-75-47-136t-150-158l-215-188 3-6h423v-90h-570z"/><glyph unicode="³" horiz-adv-x="837" d="M104 882l2 6h101q0-63 51-103t134-40q90 0 141 38t51 103q0 75-46.5 109.5t-139.5 34.5h-123v89h123q88 0 130 35t42 99q0 59-45 96.5t-133 37.5q-75 0-124-35.5t-49-93.5h-100l-2 6q-6 94 75 154t200 60q133 0 210-58.5t77-166.5q0-59-35.5-105.5t-99.5-71.5q73-22 111-70.5t38-119.5q0-109-83.5-170t-217.5-61q-120 0-206.5 58.5t-81.5 168.5z"/><glyph unicode="´" horiz-adv-x="574" d="M95 1212l206 266h147l3-6-249-260h-107z"/><glyph unicode="µ" horiz-adv-x="1297" d="M66 993v89h281v-633q0-207 71-288t192-81q137 0 212 59.5t103 170.5v670l-163 13v89h283v-981l163-13v-88h-266l-11 155q-48-85-126-130.5t-187-45.5q-88 0-157 30t-114 96v-521h-118v1396z"/><glyph unicode="¶" horiz-adv-x="1065" d="M78 988q0 207 129.5 337.5t362.5 130.5h225v-1355l163-13v-88h-445v88l163 13v419h-106q-234 0-363 129.5t-129 338.5zm717 366v102h163v-89z"/><glyph unicode="·" horiz-adv-x="496" d="M159 624v180h154v-180h-154z"/><glyph unicode="¸" horiz-adv-x="470" d="M103-357q89 0 150.5 30.5t61.5 89.5q0 57-41 79.5t-145 30.5l28 127h93l-11-64q79-9 127.5-48.5t48.5-122.5q0-91-79-145.5t-226-54.5z"/><glyph unicode="¹" horiz-adv-x="506" d="M91 1361v93l257 23v-812h-109v703z"/><glyph unicode="º" horiz-adv-x="921" d="M121 1025v117q0 148 87.5 241.5t234.5 93.5q149 0 236.5-93.5t87.5-241.5v-117q0-149-87.5-241.5t-234.5-92.5q-149 0-236.5 92.5t-87.5 241.5zm108 0q0-107 54.5-173t161.5-66q103 0 158.5 66.5t55.5 172.5v117q0 104-56 171t-160 67-159-67-55-171v-117z"/><glyph unicode="»" horiz-adv-x="916" d="M105 162l276 388-276 394h105l295-384v-19l-295-379h-105zm315 0l276 388-276 394h105l295-384v-19l-295-379h-105z"/><glyph unicode="¼" horiz-adv-x="1492" d="M165 1360v93l257 23v-812h-109v703zm141-1183l711 1138 74-48-711-1138zm459 60l428 564h114v-541h153v-90h-153v-170h-108v170h-431zm128 23h306v403l-6 1-26-44z"/><glyph unicode="½" horiz-adv-x="1462" d="M165 1360v93l257 23v-812h-109v703zm153-1183l711 1138 74-48-711-1138zm589-177v90l315 282q77 70 104 115t27 92q0 65-38.5 103.5t-117.5 38.5q-87 0-134-42t-47-108h-100l-2 6q-6 97 72.5 166t210.5 69q124 0 195-60.5t71-173.5q0-75-47-136t-150-158l-215-188 3-6h423v-90h-570z"/><glyph unicode="¾" horiz-adv-x="1670" d="M129 883l2 6h101q0-63 51-103t134-40q90 0 141 38t51 103q0 75-46.5 109.5t-139.5 34.5h-123v89h123q88 0 130 35t42 99q0 59-45 96.5t-133 37.5q-75 0-124-35.5t-49-93.5h-100l-2 6q-6 94 75 154t200 60q133 0 210-58.5t77-166.5q0-59-35.5-105.5t-99.5-71.5q73-22 111-70.5t38-119.5q0-109-83.5-170t-217.5-61q-120 0-206.5 58.5t-81.5 168.5zm384-706l711 1138 74-48-711-1138zm461 60l428 564h114v-541h153v-90h-153v-170h-108v170h-431zm128 23h306v403l-6 1-26-44z"/><glyph unicode="¿" horiz-adv-x="862" d="M58-20q0 134 65.5 238t188.5 219q61 52 75 98.5t14 142.5h120q-2-131-23.5-183t-113.5-136q-109-113-158-188.5t-49-189.5q0-128 67.5-198t194.5-70q117 0 189 68.5t74 185.5h112l2-6q2-165-105-260t-272-95q-180 0-280.5 101t-100.5 273zm327 948v155h139v-155h-139z"/><glyph unicode="À" d="M55 0v88l107 8 517 1360h113l512-1360 109-8v-88h-359v88l127 10-120 326h-654l-121-326 127-10v-88h-358zm389 1826l2 5h154l202-266h-117zm3-1295h575l-283 770h-6z"/><glyph unicode="Á" d="M55 0v88l107 8 517 1360h113l512-1360 109-8v-88h-359v88l127 10-120 326h-654l-121-326 127-10v-88h-358zm392 531h575l-283 770h-6zm190 1019l206 266h147l3-6-249-260h-107z"/><glyph unicode="Â" d="M55 0v88l107 8 517 1360h113l512-1360 109-8v-88h-359v88l127 10-120 326h-654l-121-326 127-10v-88h-358zm392 531h575l-283 770h-6zm12 1062v21l226 221h98l230-224v-18h-112l-167 168-166-168h-109z"/><glyph unicode="Ã" d="M55 0v88l107 8 517 1360h113l512-1360 109-8v-88h-359v88l127 10-120 326h-654l-121-326 127-10v-88h-358zm358 1620q0 86 53.5 144.5t136.5 58.5q65 0 147.5-55t134.5-55q46 0 79 36t33 91l80-20q0-88-55-146t-137-58q-74 0-151 55t-131 55q-47 0-79-35t-32-89zm34-1089h575l-283 770h-6z"/><glyph unicode="Ä" d="M55 0v88l107 8 517 1360h113l512-1360 109-8v-88h-359v88l127 10-120 326h-654l-121-326 127-10v-88h-358zm351 1639v157h174v-157h-174zm41-1108h575l-283 770h-6zm429 1108v157h173v-157h-173z"/><glyph unicode="Å" d="M55 0v88l107 8 517 1360h113l512-1360 109-8v-88h-359v88l127 10-120 326h-654l-121-326 127-10v-88h-358zm392 531h575l-283 770h-6zm120 1209q0 69 49.5 117.5t119.5 48.5q68 0 117-48.5t49-117.5q0-71-48.5-117t-117.5-46q-71 0-120 46t-49 117zm78 0q0-39 26.5-65t64.5-26q37 0 62 25.5t25 65.5-25 66.5-62 26.5q-38 0-64.5-26.5t-26.5-66.5z"/><glyph unicode="Æ" horiz-adv-x="2058" d="M51 0v88l130 10 822 1358h864v-307h-107l-9 205h-578l23-545h589v-102h-585l26-606h587l9 205h106v-306h-980v88l158 12-12 289h-597l-172-293 106-8v-88h-380zm513 502h526l-35 839-6 1-15-44z"/><glyph unicode="Ç" horiz-adv-x="1349" d="M103 718v19q0 325 177.5 532.5t464.5 207.5q162 0 289.5-63.5t195.5-157.5v-256h-93l-17 221q-58 69-151 111.5t-215 42.5q-244 0-388-177.5t-144-458.5v-21q0-281 142.5-459.5t374.5-178.5q123 0 223.5 43t157.5 111l17 221h93v-256q-68-94-198.5-157t-292.5-63q-280 0-458 207.5t-178 531.5zm537-1078q89 0 150.5 30.5t61.5 89.5q0 57-41 79.5t-145 30.5l28 127h93l-11-64q79-9 127.5-48.5t48.5-122.5q0-91-79-145.5t-226-54.5z"/><glyph unicode="È" horiz-adv-x="1286" d="M71 0v88l163 13v1253l-163 13v89h1080v-320h-106l-9 218h-683v-547h597v-102h-597v-604h688l9 218h106v-319h-1085zm273 1828l2 5h154l202-266h-117z"/><glyph unicode="É" horiz-adv-x="1286" d="M71 0v88l163 13v1253l-163 13v89h1080v-320h-106l-9 218h-683v-547h597v-102h-597v-604h688l9 218h106v-319h-1085zm466 1552l206 266h147l3-6-249-260h-107z"/><glyph unicode="Ê" horiz-adv-x="1286" d="M71 0v88l163 13v1253l-163 13v89h1080v-320h-106l-9 218h-683v-547h597v-102h-597v-604h688l9 218h106v-319h-1085zm288 1595v21l226 221h98l230-224v-18h-112l-167 168-166-168h-109z"/><glyph unicode="Ë" horiz-adv-x="1286" d="M71 0v88l163 13v1253l-163 13v89h1080v-320h-106l-9 218h-683v-547h597v-102h-597v-604h688l9 218h106v-319h-1085zm235 1641v157h174v-157h-174zm470 0v157h173v-157h-173z"/><glyph unicode="Ì" horiz-adv-x="627" d="M32 1827l2 5h154l202-266h-117zm59-1827v88l163 13v1253l-163 13v89h446v-89l-163-13v-1253l163-13v-88h-446z"/><glyph unicode="Í" horiz-adv-x="627" d="M91 0v88l163 13v1253l-163 13v89h446v-89l-163-13v-1253l163-13v-88h-446zm133 1551l206 266h147l3-6-249-260h-107z"/><glyph unicode="Î" horiz-adv-x="627" d="M47 1594v21l226 221h98l230-224v-18h-112l-167 168-166-168h-109zm44-1594v88l163 13v1253l-163 13v89h446v-89l-163-13v-1253l163-13v-88h-446z"/><glyph unicode="Ï" horiz-adv-x="627" d="M-6 1640v157h174v-157h-174zm97-1640v88l163 13v1253l-163 13v89h446v-89l-163-13v-1253l163-13v-88h-446zm373 1640v157h173v-157h-173z"/><glyph unicode="Ð" horiz-adv-x="1431" d="M101 0v88l163 13v588h-161v102h161v563l-163 13v89h586q267 0 441-178t174-457v-187q0-280-174-457t-441-177h-586zm282 101h304q216 0 355.5 151t139.5 382v190q0 228-140 379t-355 151h-304v-563h332v-102h-332v-588z"/><glyph unicode="Ñ" horiz-adv-x="1536" d="M71 0v88l163 13v1253l-163 13v89h283l827-1250 6 1v1147l-163 13v89h445v-89l-163-13v-1354h-119l-827 1252-6-1v-1150l163-13v-88h-446zm346 1622q0 86 53.5 144.5t136.5 58.5q65 0 147.5-55t134.5-55q46 0 79 36t33 91l80-20q0-88-55-146t-137-58q-74 0-151 55t-131 55q-47 0-79-35t-32-89z"/><glyph unicode="Ò" horiz-adv-x="1468" d="M106 718v19q0 327 172 533.5t448 206.5q280 0 455.5-206.5t175.5-533.5v-19q0-328-175-533.5t-455-205.5q-276 0-448.5 206t-172.5 533zm120 0q0-285 135-460t366-175q237 0 373.5 174.5t136.5 460.5v21q0 283-138 458t-373 175q-231 0-365.5-175t-134.5-458v-21zm213 1120l2 5h154l202-266h-117z"/><glyph unicode="Ó" horiz-adv-x="1468" d="M106 718v19q0 327 172 533.5t448 206.5q280 0 455.5-206.5t175.5-533.5v-19q0-328-175-533.5t-455-205.5q-276 0-448.5 206t-172.5 533zm120 0q0-285 135-460t366-175q237 0 373.5 174.5t136.5 460.5v21q0 283-138 458t-373 175q-231 0-365.5-175t-134.5-458v-21zm406 844l206 266h147l3-6-249-260h-107z"/><glyph unicode="Ô" horiz-adv-x="1468" d="M106 718v19q0 327 172 533.5t448 206.5q280 0 455.5-206.5t175.5-533.5v-19q0-328-175-533.5t-455-205.5q-276 0-448.5 206t-172.5 533zm120 0q0-285 135-460t366-175q237 0 373.5 174.5t136.5 460.5v21q0 283-138 458t-373 175q-231 0-365.5-175t-134.5-458v-21zm228 887v21l226 221h98l230-224v-18h-112l-167 168-166-168h-109z"/><glyph unicode="Õ" horiz-adv-x="1468" d="M106 718v19q0 327 172 533.5t448 206.5q280 0 455.5-206.5t175.5-533.5v-19q0-328-175-533.5t-455-205.5q-276 0-448.5 206t-172.5 533zm120 0q0-285 135-460t366-175q237 0 373.5 174.5t136.5 460.5v21q0 283-138 458t-373 175q-231 0-365.5-175t-134.5-458v-21zm182 914q0 86 53.5 144.5t136.5 58.5q65 0 147.5-55t134.5-55q46 0 79 36t33 91l80-20q0-88-55-146t-137-58q-74 0-151 55t-131 55q-47 0-79-35t-32-89z"/><glyph unicode="Ö" horiz-adv-x="1468" d="M106 718v19q0 327 172 533.5t448 206.5q280 0 455.5-206.5t175.5-533.5v-19q0-328-175-533.5t-455-205.5q-276 0-448.5 206t-172.5 533zm120 0q0-285 135-460t366-175q237 0 373.5 174.5t136.5 460.5v21q0 283-138 458t-373 175q-231 0-365.5-175t-134.5-458v-21zm175 933v157h174v-157h-174zm470 0v157h173v-157h-173z"/><glyph unicode="×" horiz-adv-x="1056" d="M79 318l357 365-343 350 79 80 343-350 343 350 79-80-344-350 359-365-79-79-358 364-357-364z"/><glyph unicode="Ø" horiz-adv-x="1408" d="M100 718v19q0 327 172 533.5t448 206.5q96 0 183.5-27t161.5-78l82 133h104l-117-191q103-100 160-249t57-328v-19q0-328-175-533.5t-455-205.5q-98 0-185 27.5t-158 80.5l-105-171h-104l141 229q-101 99-155.5 246.5t-54.5 326.5zm120 0q0-148 38-269.5t109-200.5l6-1 635 1033q-60 44-132.5 68t-155.5 24q-231 0-365.5-175t-134.5-458v-21zm214-540q59-47 131-71t156-24q237 0 373.5 174.5t136.5 460.5v21q0 148-40.5 270.5t-113.5 202.5l-6 1z"/><glyph unicode="Ù" horiz-adv-x="1487" d="M60 1367v89h445v-89l-163-13v-885q0-186 110-287.5t287-101.5q180 0 293 101t113 288v885l-163 13v89h445v-89l-163-13v-885q0-238-145.5-364t-379.5-126q-230 0-373 126.5t-143 363.5v885zm389 454l2 5h154l202-266h-117z"/><glyph unicode="Ú" horiz-adv-x="1487" d="M60 1367v89h445v-89l-163-13v-885q0-186 110-287.5t287-101.5q180 0 293 101t113 288v885l-163 13v89h445v-89l-163-13v-885q0-238-145.5-364t-379.5-126q-230 0-373 126.5t-143 363.5v885zm582 178l206 266h147l3-6-249-260h-107z"/><glyph unicode="Û" horiz-adv-x="1487" d="M60 1367v89h445v-89l-163-13v-885q0-186 110-287.5t287-101.5q180 0 293 101t113 288v885l-163 13v89h445v-89l-163-13v-885q0-238-145.5-364t-379.5-126q-230 0-373 126.5t-143 363.5v885zm404 221v21l226 221h98l230-224v-18h-112l-167 168-166-168h-109z"/><glyph unicode="Ü" horiz-adv-x="1487" d="M60 1367v89h445v-89l-163-13v-885q0-186 110-287.5t287-101.5q180 0 293 101t113 288v885l-163 13v89h445v-89l-163-13v-885q0-238-145.5-364t-379.5-126q-230 0-373 126.5t-143 363.5v885zm351 267v157h174v-157h-174zm470 0v157h173v-157h-173z"/><glyph unicode="Ý" horiz-adv-x="1423" d="M55 1367v89h400v-89l-140-10 394-710 396 710-140 10v89h401v-89l-124-10-474-825v-431l163-13v-88h-446v88l163 13v438l-470 818zm561 178l206 266h147l3-6-249-260h-107z"/><glyph unicode="Þ" horiz-adv-x="1257" d="M70 0v88l163 13v1253l-163 13v89h445v-89l-163-13v-202h324q221 0 345-115t124-299q0-185-123.5-299.5t-345.5-114.5h-324v-223l163-13v-88h-445zm282 425h324q173 0 261.5 92t88.5 219q0 130-88 222.5t-262 92.5h-324v-626z"/><glyph unicode="ß" horiz-adv-x="1263" d="M55 0v88l163 13v981q0 204 102 317t273 113q140 0 232-79.5t92-222.5q0-109-61.5-215.5t-61.5-184.5q0-86 184-228t184-287q0-153-109.5-234.5t-266.5-81.5q-86 0-176.5 23.5t-129.5 56.5l34 101q40-31 114.5-55.5t143.5-24.5q125 0 197.5 60t72.5 155q0 99-184 240.5t-184 276.5q0 93 63 201.5t63 190.5q0 92-59.5 149.5t-137.5 57.5q-121 0-193.5-85.5t-72.5-243.5v-1082h-282z"/><glyph unicode="à" horiz-adv-x="1130" d="M104 283q0 150 129 238t350 88h239v143q0 116-74.5 182t-208.5 66q-90 0-164.5-24.5t-124.5-66.5l-10-145h-99l1 208q75 58 179.5 94t222.5 36q179 0 288-91t109-261v-532q0-33 1.5-63.5t6.5-59.5l108-7v-88h-213q-12 55-17 95t-5 81q-60-85-160-141t-225-56q-159 0-246 82t-87 222zm119-4q0-87 60.5-140.5t166.5-53.5q130 0 229 60t143 155v217h-241q-163 0-260.5-67.5t-97.5-170.5zm31 1226l2 5h154l202-266h-117z"/><glyph unicode="á" horiz-adv-x="1130" d="M104 283q0 150 129 238t350 88h239v143q0 116-74.5 182t-208.5 66q-90 0-164.5-24.5t-124.5-66.5l-10-145h-99l1 208q75 58 179.5 94t222.5 36q179 0 288-91t109-261v-532q0-33 1.5-63.5t6.5-59.5l108-7v-88h-213q-12 55-17 95t-5 81q-60-85-160-141t-225-56q-159 0-246 82t-87 222zm119-4q0-87 60.5-140.5t166.5-53.5q130 0 229 60t143 155v217h-241q-163 0-260.5-67.5t-97.5-170.5zm224 950l206 266h147l3-6-249-260h-107z"/><glyph unicode="â" horiz-adv-x="1130" d="M104 283q0 150 129 238t350 88h239v143q0 116-74.5 182t-208.5 66q-90 0-164.5-24.5t-124.5-66.5l-10-145h-99l1 208q75 58 179.5 94t222.5 36q179 0 288-91t109-261v-532q0-33 1.5-63.5t6.5-59.5l108-7v-88h-213q-12 55-17 95t-5 81q-60-85-160-141t-225-56q-159 0-246 82t-87 222zm119-4q0-87 60.5-140.5t166.5-53.5q130 0 229 60t143 155v217h-241q-163 0-260.5-67.5t-97.5-170.5zm46 993v21l226 221h98l230-224v-18h-112l-167 168-166-168h-109z"/><glyph unicode="ã" horiz-adv-x="1130" d="M104 283q0 150 129 238t350 88h239v143q0 116-74.5 182t-208.5 66q-90 0-164.5-24.5t-124.5-66.5l-10-145h-99l1 208q75 58 179.5 94t222.5 36q179 0 288-91t109-261v-532q0-33 1.5-63.5t6.5-59.5l108-7v-88h-213q-12 55-17 95t-5 81q-60-85-160-141t-225-56q-159 0-246 82t-87 222zm119-4q0-87 60.5-140.5t166.5-53.5q130 0 229 60t143 155v217h-241q-163 0-260.5-67.5t-97.5-170.5zm0 1020q0 86 53.5 144.5t136.5 58.5q65 0 147.5-55t134.5-55q46 0 79 36t33 91l80-20q0-88-55-146t-137-58q-74 0-151 55t-131 55q-47 0-79-35t-32-89z"/><glyph unicode="ä" horiz-adv-x="1130" d="M104 283q0 150 129 238t350 88h239v143q0 116-74.5 182t-208.5 66q-90 0-164.5-24.5t-124.5-66.5l-10-145h-99l1 208q75 58 179.5 94t222.5 36q179 0 288-91t109-261v-532q0-33 1.5-63.5t6.5-59.5l108-7v-88h-213q-12 55-17 95t-5 81q-60-85-160-141t-225-56q-159 0-246 82t-87 222zm112 1035v157h174v-157h-174zm7-1039q0-87 60.5-140.5t166.5-53.5q130 0 229 60t143 155v217h-241q-163 0-260.5-67.5t-97.5-170.5zm463 1039v157h173v-157h-173z"/><glyph unicode="å" horiz-adv-x="1130" d="M104 283q0 150 129 238t350 88h239v143q0 116-74.5 182t-208.5 66q-90 0-164.5-24.5t-124.5-66.5l-10-145h-99l1 208q75 58 179.5 94t222.5 36q179 0 288-91t109-261v-532q0-33 1.5-63.5t6.5-59.5l108-7v-88h-213q-12 55-17 95t-5 81q-60-85-160-141t-225-56q-159 0-246 82t-87 222zm119-4q0-87 60.5-140.5t166.5-53.5q130 0 229 60t143 155v217h-241q-163 0-260.5-67.5t-97.5-170.5zm154 1140q0 69 49.5 117.5t119.5 48.5q68 0 117-48.5t49-117.5q0-71-48.5-117t-117.5-46q-71 0-120 46t-49 117zm78 0q0-39 26.5-65t64.5-26q37 0 62 25.5t25 65.5-25 66.5-62 26.5q-38 0-64.5-26.5t-26.5-66.5z"/><glyph unicode="æ" horiz-adv-x="1786" d="M97 293q0 158 113 248.5t325 90.5h263v88q0 134-63.5 207t-187.5 73q-135 0-213-67t-78-168l-110 12-2 6q-5 138 106 228.5t297 90.5q125 0 213-54t129-157q61 99 156 155t210 56q200 0 311.5-124t111.5-340v-100h-755v-29q0-191 90-310t272-119q103 0 181 32.5t142 86.5l48-87q-60-55-148.5-94t-222.5-39q-138 0-241 55.5t-163 157.5q-49-87-159.5-150t-269.5-63q-170 0-262.5 84.5t-92.5 229.5zm120-4q0-97 64.5-153.5t187.5-56.5q102 0 197.5 53.5t131.5 115.5v288h-261q-155 0-237.5-71t-82.5-176zm714 352l2-5h625v31q0 146-77 239.5t-226 93.5q-138 0-224.5-101.5t-99.5-257.5z"/><glyph unicode="ç" horiz-adv-x="1094" d="M97 520v42q0 236 121 388t340 152q125 0 229-47t169-128l5-236h-102l-19 192q-48 54-119.5 85.5t-162.5 31.5q-174 0-257.5-124.5t-83.5-313.5v-42q0-192 83-316t259-124q119 0 210 68t91 189h106l2-6q5-150-119.5-251t-289.5-101q-220 0-341 151.5t-121 389.5zm346-886q89 0 150.5 30.5t61.5 89.5q0 57-41 79.5t-145 30.5l28 127h93l-11-64q79-9 127.5-48.5t48.5-122.5q0-91-79-145.5t-226-54.5z"/><glyph unicode="è" horiz-adv-x="1102" d="M102 509v55q0 232 133.5 385t322.5 153q199 0 313-126t114-336v-102h-764v-29q0-182 97.5-305.5t255.5-123.5q111 0 190 31t135 89l51-82q-61-64-154-101.5t-222-37.5q-204 0-338 149.5t-134 380.5zm128 135l2-5h634v30q0 141-83 236t-225 95q-132 0-222.5-101.5t-105.5-254.5zm42 861l2 5h154l202-266h-117z"/><glyph unicode="é" horiz-adv-x="1102" d="M102 509v55q0 232 133.5 385t322.5 153q199 0 313-126t114-336v-102h-764v-29q0-182 97.5-305.5t255.5-123.5q111 0 190 31t135 89l51-82q-61-64-154-101.5t-222-37.5q-204 0-338 149.5t-134 380.5zm128 135l2-5h634v30q0 141-83 236t-225 95q-132 0-222.5-101.5t-105.5-254.5zm235 585l206 266h147l3-6-249-260h-107z"/><glyph unicode="ê" horiz-adv-x="1102" d="M102 509v55q0 232 133.5 385t322.5 153q199 0 313-126t114-336v-102h-764v-29q0-182 97.5-305.5t255.5-123.5q111 0 190 31t135 89l51-82q-61-64-154-101.5t-222-37.5q-204 0-338 149.5t-134 380.5zm128 135l2-5h634v30q0 141-83 236t-225 95q-132 0-222.5-101.5t-105.5-254.5zm57 628v21l226 221h98l230-224v-18h-112l-167 168-166-168h-109z"/><glyph unicode="ë" horiz-adv-x="1102" d="M102 509v55q0 232 133.5 385t322.5 153q199 0 313-126t114-336v-102h-764v-29q0-182 97.5-305.5t255.5-123.5q111 0 190 31t135 89l51-82q-61-64-154-101.5t-222-37.5q-204 0-338 149.5t-134 380.5zm128 135l2-5h634v30q0 141-83 236t-225 95q-132 0-222.5-101.5t-105.5-254.5zm4 674v157h174v-157h-174zm470 0v157h173v-157h-173z"/><glyph unicode="ì" horiz-adv-x="637" d="M24 1493l2 5h154l202-266h-117zm66-1493v88l163 13v879l-163 13v89h282v-981l163-13v-88h-445z"/><glyph unicode="í" horiz-adv-x="637" d="M90 0v88l163 13v879l-163 13v89h282v-981l163-13v-88h-445zm126 1217l206 266h147l3-6-249-260h-107z"/><glyph unicode="î" horiz-adv-x="637" d="M39 1260v21l226 221h98l230-224v-18h-112l-167 168-166-168h-109zm51-1260v88l163 13v879l-163 13v89h282v-981l163-13v-88h-445z"/><glyph unicode="ï" horiz-adv-x="637" d="M-14 1306v157h174v-157h-174zm104-1306v88l163 13v879l-163 13v89h282v-981l163-13v-88h-445zm366 1306v157h173v-157h-173z"/><glyph unicode="ð" horiz-adv-x="1179" d="M78 455q0 235 130 372.5t347 137.5q104 0 193.5-40t143.5-107l4 5q-18 131-68 234t-126 182l-308-176-51 74 288 164q-45 33-94.5 61t-103.5 51l38 104q77-30 144-68.5t124-85.5l258 148 51-74-241-138q111-121 168.5-289.5t57.5-386.5v-88q0-245-137-400.5t-344-155.5-340.5 137-133.5 339zm120 0q0-149 97-261t261-112q159 0 258.5 127.5t99.5 325.5v90q0 9-.5 27t-.5 27q-37 77-127.5 129.5t-230.5 52.5q-172 0-264.5-115t-92.5-291z"/><glyph unicode="ñ" horiz-adv-x="1319" d="M75 0v88l163 13v879l-163 13v89h269l11-189q52 100 140.5 154.5t209.5 54.5q176 0 268-107.5t92-335.5v-558l163-13v-88h-446v88l163 13v557q0 186-69.5 263t-197.5 77q-126 0-205.5-66.5t-114.5-176.5v-654l163-13v-88h-446zm256 1298q0 86 53.5 144.5t136.5 58.5q65 0 147.5-55t134.5-55q46 0 79 36t33 91l80-20q0-88-55-146t-137-58q-74 0-151 55t-131 55q-47 0-79-35t-32-89z"/><glyph unicode="ò" horiz-adv-x="1152" d="M97 524v33q0 239 131 392t347 153q217 0 348-153t131-392v-33q0-240-130.5-392.5t-346.5-152.5q-218 0-349 152.5t-131 392.5zm120 0q0-188 95-316t265-128q167 0 262 128t95 316v33q0 185-95.5 314t-263.5 129-263-129-95-314v-33zm71 980l2 5h154l202-266h-117z"/><glyph unicode="ó" horiz-adv-x="1152" d="M97 524v33q0 239 131 392t347 153q217 0 348-153t131-392v-33q0-240-130.5-392.5t-346.5-152.5q-218 0-349 152.5t-131 392.5zm120 0q0-188 95-316t265-128q167 0 262 128t95 316v33q0 185-95.5 314t-263.5 129-263-129-95-314v-33zm264 704l206 266h147l3-6-249-260h-107z"/><glyph unicode="ô" horiz-adv-x="1152" d="M97 524v33q0 239 131 392t347 153q217 0 348-153t131-392v-33q0-240-130.5-392.5t-346.5-152.5q-218 0-349 152.5t-131 392.5zm120 0q0-188 95-316t265-128q167 0 262 128t95 316v33q0 185-95.5 314t-263.5 129-263-129-95-314v-33zm86 747v21l226 221h98l230-224v-18h-112l-167 168-166-168h-109z"/><glyph unicode="õ" horiz-adv-x="1152" d="M97 524v33q0 239 131 392t347 153q217 0 348-153t131-392v-33q0-240-130.5-392.5t-346.5-152.5q-218 0-349 152.5t-131 392.5zm120 0q0-188 95-316t265-128q167 0 262 128t95 316v33q0 185-95.5 314t-263.5 129-263-129-95-314v-33zm40 774q0 86 53.5 144.5t136.5 58.5q65 0 147.5-55t134.5-55q46 0 79 36t33 91l80-20q0-88-55-146t-137-58q-74 0-151 55t-131 55q-47 0-79-35t-32-89z"/><glyph unicode="ö" horiz-adv-x="1152" d="M97 524v33q0 239 131 392t347 153q217 0 348-153t131-392v-33q0-240-130.5-392.5t-346.5-152.5q-218 0-349 152.5t-131 392.5zm120 0q0-188 95-316t265-128q167 0 262 128t95 316v33q0 185-95.5 314t-263.5 129-263-129-95-314v-33zm33 793v157h174v-157h-174zm470 0v157h173v-157h-173z"/><glyph unicode="÷" horiz-adv-x="1148" d="M74 644v116h998v-116h-998zm434-432v160h142v-160h-142zm0 798v160h142v-160h-142z"/><glyph unicode="ø" horiz-adv-x="1152" d="M97 524v33q0 239 131 392t347 153q62 0 119-14.5t108-40.5l86 167h93l-110-214q87-73 135-188t48-255v-33q0-240-130.5-392.5t-346.5-152.5q-58 0-110 11t-98 34l-84-164h-93l106 207q-96 71-148.5 190t-52.5 267zm120 0q0-110 33.5-202.5t96.5-147.5h6l399 776q-38 24-82.5 37t-94.5 13q-168 0-263-129t-95-314v-33zm200-406q34-19 74-28.5t86-9.5q167 0 262 128t95 316v33q0 100-30 187.5t-85 144.5h-5z"/><glyph unicode="ù" horiz-adv-x="1232" d="M46 993v89h253v-629q0-198 67.5-284t191.5-86q136 0 216.5 60t113.5 166v671l-154 13v89h274v-981l145-13v-88h-250l-11 178q-51-95-139.5-147t-208.5-52q-171 0-267.5 116t-96.5 360v525zm223 500l2 5h154l202-266h-117z"/><glyph unicode="ú" horiz-adv-x="1232" d="M46 993v89h253v-629q0-198 67.5-284t191.5-86q136 0 216.5 60t113.5 166v671l-154 13v89h274v-981l145-13v-88h-250l-11 178q-51-95-139.5-147t-208.5-52q-171 0-267.5 116t-96.5 360v525zm416 224l206 266h147l3-6-249-260h-107z"/><glyph unicode="û" horiz-adv-x="1232" d="M46 993v89h253v-629q0-198 67.5-284t191.5-86q136 0 216.5 60t113.5 166v671l-154 13v89h274v-981l145-13v-88h-250l-11 178q-51-95-139.5-147t-208.5-52q-171 0-267.5 116t-96.5 360v525zm238 267v21l226 221h98l230-224v-18h-112l-167 168-166-168h-109z"/><glyph unicode="ü" horiz-adv-x="1232" d="M46 993v89h253v-629q0-198 67.5-284t191.5-86q136 0 216.5 60t113.5 166v671l-154 13v89h274v-981l145-13v-88h-250l-11 178q-51-95-139.5-147t-208.5-52q-171 0-267.5 116t-96.5 360v525zm185 313v157h174v-157h-174zm470 0v157h173v-157h-173z"/><glyph unicode="ý" horiz-adv-x="1174" d="M46 993v89h372v-89l-129-10 264-690 38-130h6l296 820-132 10v89h374v-89l-110-9-437-1157q-42-110-109-187t-196-77q-21 0-51 4.5t-44 9.5l14 100q12-2 38.5-4.5t37.5-2.5q79 0 125 55t81 143l56 145-384 971zm452 224l206 266h147l3-6-249-260h-107z"/><glyph unicode="þ" horiz-adv-x="1191" d="M47-327l163 13v1772l-163 13v89h282v-640q54 87 138.5 134.5t198.5 47.5q195 0 305-155.5t110-414.5v-21q0-243-110-387.5t-303-144.5q-114 0-199.5 43.5t-139.5 123.5v-460l163-13v-89h-445v89zm282 598q41-89 118.5-140t193.5-51q157 0 238.5 118t81.5 313v21q0 206-82 336t-240 130q-121 0-196.5-57.5t-113.5-149.5v-520z"/><glyph unicode="ÿ" horiz-adv-x="1174" d="M46 993v89h372v-89l-129-10 264-690 38-130h6l296 820-132 10v89h374v-89l-110-9-437-1157q-42-110-109-187t-196-77q-21 0-51 4.5t-44 9.5l14 100q12-2 38.5-4.5t37.5-2.5q79 0 125 55t81 143l56 145-384 971zm221 313v157h174v-157h-174zm470 0v157h173v-157h-173z"/><glyph unicode="Œ" horiz-adv-x="1971" d="M114 576v304q0 265 148.5 431t387.5 166q75 0 151.5-6t161.5-15h889v-320h-106l-9 218h-683v-547h597v-102h-597v-604h688l9 218h106v-319h-894q-99-10-168.5-15.5t-142.5-5.5q-240 0-389 166t-149 431zm120 0q0-228 113.5-361.5t304.5-133.5q29 0 59.5.5t60.5 2.5v4l163 13v1253l-163 13v5q-30 1-61 2t-61 1q-192 0-304-132t-112-361v-306z"/><glyph unicode="œ" horiz-adv-x="1916" d="M104 524v33q0 239 130.5 392t346.5 153q146 0 255.5-72.5t168.5-199.5q59 125 166 198.5t234 73.5q199 0 313-126t114-336v-102h-764v-29q0-183 97-306t255-123q112 0 191 31t135 89l51-82q-61-64-154.5-101.5t-222.5-37.5q-138 0-248 72t-169 197q-58-126-167-197.5t-253-71.5q-217 0-348 152.5t-131 392.5zm119 0q0-188 95-316t265-128q167 0 262.5 128t95.5 316v33q0 185-96 314t-264 129-263-129-95-314v-33zm854 120l2-5h634v30q0 141-83 236t-225 95q-132 0-222.5-101.5t-105.5-254.5z"/><glyph unicode="Ÿ" horiz-adv-x="1423" d="M55 1367v89h400v-89l-140-10 394-710 396 710-140 10v89h401v-89l-124-10-474-825v-431l163-13v-88h-446v88l163 13v438l-470 818zm330 267v157h174v-157h-174zm470 0v157h173v-157h-173z"/><glyph unicode="ˆ" horiz-adv-x="801" d="M104 1252v21l226 221h98l230-224v-18h-112l-167 168-166-168h-109z"/><glyph unicode="˜" horiz-adv-x="934" d="M127 1281q0 86 53.5 144.5t136.5 58.5q65 0 147.5-55t134.5-55q46 0 79 36t33 91l80-20q0-88-55-146t-137-58q-74 0-151 55t-131 55q-47 0-79-35t-32-89z"/><glyph horiz-adv-x="953"/><glyph horiz-adv-x="1906"/><glyph horiz-adv-x="953"/><glyph horiz-adv-x="1906"/><glyph horiz-adv-x="635"/><glyph horiz-adv-x="476"/><glyph horiz-adv-x="317"/><glyph horiz-adv-x="317"/><glyph horiz-adv-x="238"/><glyph horiz-adv-x="381"/><glyph horiz-adv-x="105"/><glyph unicode="‐" horiz-adv-x="793" d="M154 570v101h478v-101h-478z"/><glyph unicode="‑" horiz-adv-x="793" d="M154 570v101h478v-101h-478z"/><glyph unicode="‒" horiz-adv-x="793" d="M154 570v101h478v-101h-478z"/><glyph unicode="–" horiz-adv-x="1407" d="M149 686v102h1086v-102h-1086z"/><glyph unicode="—" horiz-adv-x="1646" d="M116 686v102h1336v-102h-1336z"/><glyph unicode="‘" horiz-adv-x="364" d="M98 1077v171q0 93 37 180.5t103 149.5l72-51q-48-67-70-131.5t-22-144.5v-174h-120z"/><glyph unicode="’" horiz-adv-x="364" d="M62 1107q47 65 69.5 130t22.5 145v178h119v-175q0-94-37.5-182t-102.5-148z"/><glyph unicode="‚" horiz-adv-x="353" d="M41-188q47 66 69.5 130.5t22.5 144.5v172h119v-170q0-92-37.5-180t-102.5-149z"/><glyph unicode="“" horiz-adv-x="612" d="M98 1077v171q0 93 37 180.5t103 149.5l72-51q-48-67-70-131.5t-22-144.5v-174h-120zm247 0v171q0 93 37 180.5t103 149.5l72-51q-48-67-70-131.5t-22-144.5v-174h-120z"/><glyph unicode="”" horiz-adv-x="617" d="M68 1107q47 65 69.5 130t22.5 145v178h119v-175q0-94-37.5-182t-102.5-148zm244 0q47 65 69.5 130t22.5 145v178h119v-175q0-94-37.5-182t-102.5-148z"/><glyph unicode="„" horiz-adv-x="593" d="M41-188q47 66 69.5 130.5t22.5 144.5v172h119v-170q0-92-37.5-180t-102.5-149zm234 0q46 66 68.5 130.5t22.5 144.5v172h120v-170q0-92-37.5-180t-102.5-149z"/><glyph unicode="•" horiz-adv-x="671" d="M135 717v65q0 79 50 129t134 50q85 0 135.5-50.5t50.5-128.5v-65q0-79-50.5-128t-134.5-49q-85 0-135 49t-50 128z"/><glyph unicode="…" horiz-adv-x="1297" d="M166 0v164h137v-164h-137zm410 0v164h137v-164h-137zm392 0v164h137v-164h-137z"/><glyph horiz-adv-x="381"/><glyph unicode="‹" horiz-adv-x="574" d="M68 546v19l295 379h105l-276-389 276-388h-105z"/><glyph unicode="›" horiz-adv-x="573" d="M83 162l276 388-276 394h105l295-384v-19l-295-379h-105z"/><glyph horiz-adv-x="476"/><glyph unicode="€" horiz-adv-x="1051" d="M71 533v88h168v195h-168v89h168v37q0 244 135.5 389.5t356.5 145.5q56 0 111.5-8t119.5-23l-9-106q-53 16-109.5 25.5t-112.5 9.5q-172 0-272-116t-100-315v-39h546v-89h-546v-195h546v-88h-546v-19q0-198 101.5-316t272.5-118q57 0 113 8.5t107 25.5l9-104q-54-15-112.5-23t-116.5-8q-221 0-357.5 145t-136.5 390v19h-168z"/><glyph unicode="™" horiz-adv-x="1246" d="M98 1387v69h384v-69h-153v-468h-73v468h-158zm462-468v537h93l172-423h6l174 423h87v-537h-72v385l-6 1-161-386h-51l-164 399-6-1v-398h-72z"/><glyph unicode="" horiz-adv-x="1080" d="M0 0v1080h1080v-1080h-1080z"/><glyph unicode="ﬃ" horiz-adv-x="1934" d="M80 984v98h179v158q0 163 82 252t229 89q32 0 66-5t69-14l-15-99q-24 6-49 9.5t-59 3.5q-98 0-150.5-62t-52.5-174v-158h258v-98h-258v-883l163-13v-88h-446v88l163 13v883h-179zm704 0v98h179v138q0 173 95.5 267t264.5 94q66 0 135-15t140-44l-19-103q-60 25-118 39t-131 14q-122 0-184.5-65t-62.5-187v-138h621v-981l163-13v-88h-445v88l163 13v883h-502v-883l163-13v-88h-446v88l163 13v883h-179z"/><glyph unicode="ﬄ" horiz-adv-x="2060" d="M80 984v98h179v158q0 163 82 252t229 89q32 0 66-5t69-14l-15-99q-24 6-49 9.5t-59 3.5q-98 0-150.5-62t-52.5-174v-158h258v-98h-258v-883l163-13v-88h-446v88l163 13v883h-179zm725 0v98h179v158q0 163 82 252t229 89q32 0 66-5t69-14l-15-99q-24 6-49 9.5t-59 3.5q-98 0-150.5-62t-52.5-174v-158h258v-98h-258v-883l163-13v-88h-446v88l163 13v883h-179zm718-984v88l163 13v1357l-163 13v89h282v-1459l163-13v-88h-445z"/></font>
</defs>
</svg>
