<?xml version="1.0" encoding="utf-8"?>
<!-- Generator: Adobe Illustrator 18.1.1, SVG Export Plug-In . SVG Version: 6.00 Build 0)  -->
<svg version="1.1" id="Layer_1" xmlns="http://www.w3.org/2000/svg" xmlns:xlink="http://www.w3.org/1999/xlink" x="0px" y="0px"
	 viewBox="0 0 1024 1024" enable-background="new 0 0 1024 1024" xml:space="preserve">
<g>
	<path fill="#FFFFFF" d="M41,1024c0-341.3,0-682.7,0-1024c341.3,0,682.7,0,1024,0c0,341.3,0,682.7,0,1024
		C723.7,1024,382.3,1024,41,1024z M771.7,732c12.3,0,24.7,0.2,37-0.1c4.8-0.1,9.8-0.3,14.2-2.1c11-4.4,21.8-9.3,32.3-14.7
		c7.9-4,15.6-8.6,22.9-13.7c5.9-4.1,11.8-8.7,16.3-14.2c6.3-7.8,10.8-17,16.7-25.1c4.3-6,8-12,9.8-19.2c0.7-2.6,1.9-5.3,3.4-7.6
		c6.1-9.2,8.4-19.7,10.5-30.2c2.2-10.5,3.3-21.3,5.6-31.7c2.2-9.9,2.5-19.5-1.1-29.2c-1.9-5-2.3-10.6-3.3-16
		c-1.4-7.4-1-15.7-4.4-22.1c-9.7-18.6-18.4-38.2-34.2-53C892,448,886.2,443,880,438.7c-13.6-9.3-29.3-15.5-40.7-28.1
		c-1.3-1.5-5.2-1.8-7.3-1c-1.8,0.7-3.2,3.5-3.9,5.6c-0.5,1.7,0.6,3.9,0.5,5.9c-0.3,5.4,0.9,11.7-1.5,16c-8.2,14.3-17.2,28.2-29.3,40
		c-12.9,12.7-26.5,24-43,31.7c-4.6,2.2-9.7,3.4-14.3,5.6c-14.5,6.8-28.7,14.1-43.2,20.8c-11.1,5.1-22.4,9.7-33.7,14.3
		c-3.9,1.6-8,3.3-12.1,4.3c-9.5,2.2-19.2,3.7-28.6,6.2c-12.9,3.5-24.9,0.2-36.7-4.3c-5.3-2-6.8-6.5-5.1-12.5
		c1.3-4.6,5.3-5.1,9.2-5.1c2.5,0,5,0.3,7.4,0.7c11,1.7,21.8,2.6,32.8-1.5c11.3-4.2,23.1-7,34.6-10.6c3.9-1.2,7.6-3.3,11.3-5
		c4.2-1.9,8.3-4.1,12.6-5.7c16.9-6.5,34.4-12,50.8-19.5c19-8.8,36.7-20.1,50.1-36.8c5.2-6.5,10.8-13.2,14.2-20.8
		c4.2-9.4,7.1-19.6,9.2-29.8c1.2-5.7,1.4-12.8-0.9-17.9c-5.1-11.1-11.8-21.5-18.3-31.9c-1.6-2.6-4.6-5.1-7.5-6.1
		c-15.5-5.3-28.3-14.9-40.4-25.4c-1.9-1.7-3.8-4.7-3.9-7.1c-0.3-7.9-0.2-15.9,0.6-23.7c0.8-7.8-0.3-14.3-5.9-20.6
		c-10.5-11.9-23.8-19-37.9-25c-9.2-3.9-18.9-3.7-28,0.9c-14.5,7.2-25.5,18.3-33.8,32c-2.5,4.2-5.9,6.4-10.3,7.9
		c-19.5,6.4-39.2,5.5-59,2.2c-8.5-1.4-16.9-2.5-25.7-1c-8.8,1.5-17.8,2.1-26.7,2.8c-19.7,1.5-39.4,2.7-59.1,4.4
		c-19.5,1.7-39,3.5-58.4,5.8c-9.6,1.2-19.5,2.5-28.6,5.8c-12.6,4.5-25,8.6-38.6,8.2c-6.4-0.2-12.2,1.9-17.7,5.7
		c-4.9,3.3-10.5,5.5-15.7,8.4c-11.9,6.5-24.8,11.7-35.5,19.8c-22.2,16.8-40.6,37.8-58.6,59c-16.7,19.8-33.1,39.7-53,56.6
		c-17.7,15.1-35.6,29.8-54.9,42.8c-5.5,3.7-10.9,7.8-11.4,15.5c-0.6,10.1-1.9,20.3-1.7,30.4c0.1,9.5,0.8,19.2,2.9,28.5
		c1.5,6.6,5.7,12.5,8.7,18.7c2.4,5,4,10.5,7.2,15c8.4,11.7,17.5,22.8,26.3,34.3c10.6,13.9,22,26.9,35.5,38.3
		c9.3,7.9,18.9,11.2,30.8,11.3c5.9,0,12,2.2,17.8,3.9c8,2.5,15.9,5.6,23.9,8.2c3.8,1.2,7.9,1.5,11.5,3.1c11.3,5.1,22.5,10.3,33.5,16
		c7.1,3.7,9,15.8,3.7,20.5c-3.9,3.5-10.1,2.8-16.5-1.1c-6.5-3.9-13.1-7.7-20-10.8c-9.4-4.4-19-8.3-28.7-12c-4.1-1.6-8.6-2.4-12.9-3
		c-9.4-1.2-18.8-1.6-28.2-3c-10.3-1.5-20.4-3.3-30.9-0.2c-9.3,2.7-19.2,3.3-28.7,5.3c-4.9,1-11.4,1.7-13.9,5
		c-6.8,8.9-12.1,18.9-17.6,28.8c-4.9,8.8-2.3,16.8,3,24.7c8.4,12.3,21.1,19.7,32.4,28.4c12.1,9.4,25.6,17.1,38.8,25
		c7.3,4.4,15.3,7.7,23.2,11.2c7.2,3.2,14.6,6.1,21.9,9c7.2,2.8,14.4,5.6,21.7,8.2c5,1.8,10,3.6,15.1,4.6c8.7,1.6,17.1,3.2,24.9,8
		c4.1,2.6,9.1,4,13.9,5.1c16.3,3.6,32.6,6.8,47.4,15.4c2.6,1.5,6,2.7,8.9,2.5c8.7-0.5,16.3,2.1,23.6,6.2
		c15.7,8.8,31.5,17.3,47.1,26.3c6,3.5,11.6,7.8,17.3,11.8c8.8,6.2,11.3,16,14.3,25.5c1.9,5.9,3.5,11.8,8.9,15.7
		c4.7,3.3,8,3.2,12.4-0.7c4.2-3.8,8.5-7.5,12.9-11c8.3-6.6,7.9-18.6-1.2-24.3c-3.3-2.1-7-3.8-10.7-5c-10.3-3.5-18.7-9.3-23.6-19.3
		c-2.6-5.4-2-7.5,3.1-10.6c6.8-4,13.6-8,20.5-11.9c1.3-0.7,2.7-1.3,4.2-1.5c13.8-1.8,27.6-4.1,41.4-5.2c12-1,22.1,3.2,29.2,13.6
		c3.5,5.1,9.8,5.4,14.9,1.2c3.7-3.1,7.3-6.4,10.7-9.8c4.9-4.9,6.3-12.1,2-17.2c-4.8-5.5-10.9-10-16.9-14.3c-1.8-1.3-5.1-0.9-7.6-0.7
		c-7.1,0.7-14.1,3-21.1,2.6c-18.9-1.2-37.7-3.1-56.5-5.4c-7.4-0.9-14.7-3.3-19.7-9.6c-5.7-7.2-3-14.3,5.9-16.2
		c6.5-1.4,13-2.4,19.4-4.1c6.5-1.7,12.4-0.8,18.2,2.5c1.3,0.8,2.6,1.4,4,2c7.9,3.6,14.5,1.8,19.5-5.3c2.1-3,4-6.1,6.1-9
		c3.8-5,4-8.4,0.3-13.5c-3.4-4.7-7-9.3-10.4-14c-2.9-4.1-6.5-4.8-10.9-3c-1.8,0.8-3.6,1.7-5.3,2.8c-10,6.6-20.4,11.2-32.7,13.3
		c-15.5,2.7-31.1,2.6-46.6,4c-5.2,0.5-10.6-0.3-13.2-5.8c-2-4.3,0.9-10.6,6.2-14.7c1.8-1.4,3.9-2.5,5.8-3.9c2.4-1.7,4.8-3.5,7.1-5.4
		c4.2-3.4,4.7-7.7,2.8-12.6c-2.4-6-7.8-7.9-13.4-9.2c-8.8-2.1-11.8,1.7-14.9,7.9c-1.4,2.8-2,5.9-3.1,8.9
		c-5.1,14.3-14.4,24.3-29.1,29c-3.9,1.2-8,2.4-11.6,4.3c-13.6,7.2-26.9,14.9-40.6,21.9c-4.6,2.4-9.9,4.1-15,4.8
		c-17.8,2.3-35.6,4.6-53.6,2.1c-13.6-1.9-27.5-2.6-39.6-10.1c-2.7-1.7-5.5-3-8.3-4.5c-14.9-8.2-29.9-16.3-44.8-24.6
		c-6.8-3.7-13.4-7.9-20.3-11.3c-7.8-3.8-12.2-11.3-10.9-19.8c0.5-3.3,2.3-5,5.4-4.3c3.3,0.8,6.6,2,9.5,3.8
		c12.9,8.1,25.6,16.4,38.5,24.5c4.2,2.6,8.7,4.8,13.1,7c6.9,3.5,13.7,6.9,20.7,10.2c2.7,1.3,5.7,1.9,8.3,3.3c13.1,7,27.3,9,41.8,9.7
		c25.4,1.3,48.3-8.5,70.5-18.4c17.6-7.9,34.4-17.7,48.9-31.1c8.2-7.6,10.7-26.7,3.6-35.6c-8.4-10.5-16.5-21-25-31.4
		c-7.8-9.5-15.1-19.6-24-27.9c-12.3-11.5-25.9-21.7-39-32.4c-8.6-7-17-14.4-26.2-20.5c-16.8-11.3-34-21.8-51.1-32.6
		c-4.9-3.1-10.1-5.8-14.6-9.5c-13.6-11.4-28.9-19.9-45-27.1c-5.3-2.4-8.3-6.3-9.6-11.8c-0.9-3.5-1.7-8,1.8-9.4
		c2.7-1.1,6.7,0.9,10.1,1.6c0.1,0,0.3,0.2,0.4,0.3c8.6,5.6,17.1,11.4,25.8,16.9c20.5,12.9,41.2,25.5,61.7,38.5
		c10.5,6.6,20.8,13.5,30.9,20.7c15,10.7,30,21.4,44.5,32.6c11.3,8.8,22.5,18,32.7,28.1c6.3,6.2,10.4,14.5,15.8,21.8
		c3.9,5.3,9.5,5,12-1.1c1.8-4.3,2.8-9.4,2.4-13.9c-1.4-13.7,0.3-26.1,8.5-37.8c4-5.8,4.9-13.7,8.6-19.8
		c8.4-13.9,17.1-27.6,26.6-40.7c5.4-7.4,12.5-13.8,19.5-19.8c5.6-4.8,11-2.1,11.8,5.3c0.8,6.8-0.8,12.5-6.4,17.4
		c-6,5.2-12.1,10.7-16.6,17.2c-6.1,8.9-11,18.8-16,28.4c-3.3,6.3-6.6,12.6-8.8,19.3c-2.3,7.2-3.3,14.9-5,22.3
		c-1.4,5.8-3,11.5-4.6,17.2c-3.4,11.9-6.6,23.4,3.4,34.6c6.3,7,9.1,16.9,17.8,22.2c3.4,2,6.5,4.7,9.2,7.6
		c5.4,5.8,12.1,9.1,19.2,12.1c6.1,2.6,11.9,6,18.1,8.2c6,2.1,12.3,3.7,18.6,4.7c6.5,1,13.3,0.6,19.9,1.2c8.1,0.8,15.9,2.1,22.9,7.1
		c3.6,2.6,8.6,3.3,12.9,4.8c2.5,0.9,5.5,1,7.5,2.5c10.5,8.4,21.4,16.4,30.6,26c5.3,5.6,8,13.9,11.3,21.3
		c5.7,12.5,16.5,15.3,26.8,6.4c3-2.6,5.9-5.5,8.4-8.5c8.4-10.1,3.6-24.1-9.1-26.6c-8.8-1.7-17.3-4.5-23.5-11
		c-7.2-7.5-13.9-15.7-20.2-24c-4.9-6.5-2.1-13.6,5.9-14.9c6.8-1.1,13.9-1.2,20.8-0.9c11.7,0.5,23.1,0.4,34.2-4.1
		c7-2.9,13.8-1.3,20.4,2.2c4.2,2.3,8.7,4.2,13.3,5.4c7.2,1.8,14.3,1.7,19.5-4.9c3.6-4.5,7-9.3,10.5-13.9c2.9-3.9,2.6-7.8-0.3-11.4
		c-3.2-4-6.5-8-10.2-11.6c-9.2-8.8-20.4-8.5-27.5,0.3c-3.9,4.8-9.3,6.6-15.5,6c-8.3-0.7-16.5-1.3-24.8-2.4c-9.3-1.2-18.6-3-27.9-4.3
		c-11.4-1.6-22.8-5.7-33.7,3c-5.1,4.1-10.1,2.9-13.1-0.4c-5.7-6.3-4.3-19.4,2.3-24.7c3.1-2.5,6.2-5.2,8.3-8.5
		c8.7-13.7,21.2-22.7,35.4-29.7c5.9-2.9,7.9-6.9,4.5-12.3c-6.3-10-14.2-18.5-26.2-21.6c-10.2-2.6-15.2,1.4-15.4,11.9
		c-0.1,3.8,0.1,8-1.5,11.2c-5.3,10.7-11.1,21.3-23.3,26c-2,0.8-3.8,2.1-5.6,3.2c-8.8,5.4-10.4,12.1-5.4,21c1.7,3,3.7,6.1,4.2,9.4
		c0.3,2.1-1.3,5.4-3.1,6.6c-1.5,1-5.1,0.5-6.7-0.7c-3.7-3-7.1-6.5-10.1-10.2c-7.2-9.1-13.6-18.9-21.1-27.6
		c-11.3-13-11.7-13.7,2.2-27.2c0.2-0.2,0.5-0.5,0.7-0.7c12.1-8.7,24.6-17,36.3-26.2c8-6.3,15.9-13.2,22-21.3
		c6.2-8.1,10.1-17.9,15-26.9c2.8-5.2,7.1-7.1,11.3-5.4c4.3,1.7,6,6,4.5,11.8c-1.2,4.5-2.5,8.9-4,13.3c-1.6,4.9-0.3,8.9,3.5,12.1
		c1.9,1.6,4.1,2.9,6,4.4c8,6.5,16.6,12.4,23.7,19.6c7.5,7.6,13.5,16.8,20.5,25c17.2,20.3,39.3,33.9,63,45
		c8.4,3.9,17.6,6.1,25.7,10.4c10.4,5.5,21.2,7.1,32.6,7C751.1,731.9,761.4,732,771.7,732z M601.5,75c-1.1,9-0.5,19.1-3.7,27.9
		c-4.2,11.6-10.1,23.1-17.6,32.9c-10.4,13.6-22.6,26-34.8,38c-7.8,7.7-17.2,13.5-27.5,18.1c-16.7,7.5-28.6,20.5-38.4,36.1
		c-8.4,13.4-13.6,29.4-27.8,38.9c-3.3,2.2-2.9,7.1,0.7,8.7c3.5,1.5,8,2.3,11.8,1.8c17.4-2.6,34.8-3.5,52.2-1.2
		c15.2,2.1,20.1-0.4,26.9-14c3.7-7.5,8.6-14.4,13.4-21.3c2.5-3.6,5.9-4.1,9.9-1.2c5.2,3.8,7,7,5.3,11.5c-1.2,3.2-2.7,6.4-4,9.6
		c-4.3,9.9,0.1,16.8,10.9,17.1c4.8,0.1,9.7,0.1,14.5,0c6.4-0.1,11.9-2.3,16.4-7.1c3.7-4,7.4-8.2,11.7-11.5
		c8.5-6.3,17.2-12.5,26.3-17.9c16.6-9.8,33.9-15.5,53.3-7.7c7.4,3,14.4,0.4,18.6-5.3c4-5.5,4.2-13.5,0.4-19.7
		c-2.1-3.4-4.5-6.6-6.5-10c-4.3-7.4-8.1-7.8-14.6-2.2c-4.1,3.5-8.5,7.2-13.4,9c-6.9,2.6-14.4,3.8-21.7,5c-7,1.2-13.9,0.5-20.2-3.3
		c-5.2-3.1-7.7-7.8-6.8-13.7c1.7-11.6,7.2-21.2,13.4-31.1c10.5-16.7,24-30,39.6-41.5c4.6-3.4,10.5-5.4,14.6-9.3
		c7.7-7.2,16.9-10.8,26.5-14c3.6-1.2,7.4-3.2,10.1-5.8c11.4-11,14.2-10.3,2.4-25.2c-3.9-4.9-7.9-9.2-14.6-9
		c-6.9,0.2-13.8,0.6-20.6,1.4c-4.9,0.5-6.9,3.6-6.9,8.6c0,8.8-2.7,16.7-9.3,22.8c-7.6,7-15.2,13.9-23.1,20.5
		c-7.3,6-14.9,11.6-22.5,17.1c-1.9,1.4-4.5,2.4-6.8,2.6c-8.2,0.7-14-5-14-14.3c0-8.3,0.7-16.6,1.6-24.9c0.6-5.3,1.2-11,3.5-15.7
		c4.1-8.7,9.2-16.9,14.1-25.1c5.1-8.5,1.5-16.8-5.4-21.7c-4.9-3.4-10.1-6.6-15.5-8.9c-2.6-1.1-6.5-0.6-9.1,0.6
		c-3.4,1.5-6,4.6-9.2,6.7c-6.5,4.2-7.6,7.1-6.6,15C599.8,53.2,600.5,63.8,601.5,75z M250.6,259.8c-5.9-0.8-10.3,2.1-14.5,5.5
		c-4.6,3.8-9.4,7.4-13.8,11.4c-8.7,7.7-17.8,15.1-25.7,23.6c-15,16.4-29.2,33.5-43.6,50.5c-3.7,4.4-7.2,9-10.3,13.9
		c-4.8,7.5-9.2,15.3-13.9,22.9c-11.9,19.4-24,38.5-38.7,55.9c-5.6,6.7-9.7,14.7-15.2,21.5c-6,7.5-8.2,15.8-7.8,25
		c0.3,6.7,4.4,10.2,10.5,8.1c4.8-1.7,8.9-5.2,13.2-8.1c3.9-2.6,7.9-5.2,11.5-8.2c4.5-3.8,9.9-7.3,12.5-12.2c4.2-7.9,7-16.7,9.2-25.5
		c3.2-13.1,7.1-25.7,15-37c8.8-12.7,15.9-26.5,24.8-39.1c11.9-16.9,25-33.1,37.3-49.7c8.8-11.9,19.1-22.1,31.7-29.7
		c3.4-2,6.9-4.1,10.6-5.3c4.5-1.5,8.5,0.2,11.5,3.9c2.7,3.4,0.5,6.4-1.4,8.8c-3,3.8-6.2,7.9-10.2,10.5
		c-10.7,7.1-19.6,15.9-27.5,25.8c-7.6,9.7-14.7,19.6-21.9,29.6c-7.6,10.5-15.7,20.6-22.1,31.7c-3.7,6.4-8.1,12-12.4,17.8
		c-4.8,6.6-8.4,14.2-12,21.5c-0.8,1.7-0.3,5.5,0.9,6.2c1.7,1,5.4,1,6.8-0.3c5.2-4.5,10.2-9.4,14.7-14.7c5.6-6.5,10.4-13.6,16-20.2
		c11.2-13.3,22.3-26.7,34-39.4c14.8-16.1,32-29.4,51.2-40c11-6.1,22.3-11.6,33.4-17.5c7.8-4.1,9.5-8.8,4.9-16.2
		c-3.7-6-8.7-11.2-13.2-16.7c-4.3-5.2-9.2-10-16-11.2C270.1,261.6,260.3,260.9,250.6,259.8z M393.2,277.2
		c-0.1-9.8-5.1-15.7-16.3-19.2c-7.7-2.4-12.4-0.8-17.5,5.4c-2.9,3.4-6,7.1-9.8,9.1c-3.7,1.9-8.4,2.5-12.7,2.5
		c-1.7,0-4.5-3.2-4.7-5.2c-0.8-9.3,0.2-18.2,6.9-25.6c1.7-1.8,3.4-3.9,4.2-6.1c3.5-11,10.1-20,16.8-29.1
		c7.2-9.8,15.5-17.5,27.7-20.7c3.7-1,7.3-3.2,10.5-5.5c4.9-3.6,6.3-12.3,2.1-15.9c-7.9-6.7-16.4-12.9-25.1-18.6
		c-4.1-2.7-7.5-1.1-9.9,3.3c-5.3,9.7-10.6,19.5-15.9,29.2c-1.3,2.5-2.4,5.2-4.2,7.3c-5.2,6.1-8.9,13-12.8,19.9
		c-7,12.4-15.6,23.9-26.8,33.1c-5,4.1-5.5,8.4-1.1,13.3c5.5,6.2,11.7,11.8,17.1,18.1c2.8,3.3,4.7,7.3,6.5,11.3
		c0.9,2,0.7,4.5,1.1,6.8c1.7,8.8,10.7,12.5,18.8,7.4c6.8-4.3,13.1-6.5,21.4-2.9C379.5,299.5,393.3,288.5,393.2,277.2z M265.2,145.8
		c-6,0-13.9,3.2-16.1,7.3c-6.6,11.9-8.2,23,4.6,34.8c4.1,3.8,6.7,8.1,6.4,13.9c-0.4,8.3-0.7,16.6-1.1,24.9c-0.1,3.1-0.9,6.3-0.5,9.4
		c1.2,10.8,14.3,14,23.2,9.8c4-1.9,8.8-3.6,8.3-9.8c-0.9-10.6-1.4-21.1-2.4-31.7c-1-10.5-0.8-20.9,3-30.9c0.3-0.9,0.3-1.9,0.4-2.9
		C291.4,159.9,276.7,145.9,265.2,145.8z"/>
	<path d="M771.7,732c-10.3,0-20.7-0.1-31,0c-11.4,0.1-22.2-1.5-32.6-7c-8.1-4.3-17.4-6.5-25.7-10.4c-23.8-11.1-45.9-24.6-63-45
		c-7-8.2-12.9-17.4-20.5-25c-7.2-7.3-15.8-13.2-23.7-19.6c-1.9-1.6-4.1-2.8-6-4.4c-3.8-3.2-5.1-7.2-3.5-12.1c1.4-4.4,2.8-8.8,4-13.3
		c1.5-5.8-0.2-10-4.5-11.8c-4.3-1.7-8.5,0.2-11.3,5.4c-4.9,9-8.9,18.8-15,26.9c-6.1,8-14,15-22,21.3c-11.7,9.2-24.1,17.5-36.3,26.2
		c-0.3,0.2-0.5,0.4-0.7,0.7c-13.9,13.5-13.5,14.2-2.2,27.2c7.6,8.7,14,18.5,21.1,27.6c3,3.8,6.3,7.3,10.1,10.2
		c1.6,1.2,5.2,1.7,6.7,0.7c1.8-1.2,3.4-4.5,3.1-6.6c-0.5-3.3-2.5-6.4-4.2-9.4c-5-8.9-3.4-15.7,5.4-21c1.8-1.1,3.6-2.4,5.6-3.2
		c12.2-4.7,18-15.3,23.3-26c1.6-3.2,1.4-7.4,1.5-11.2c0.2-10.4,5.2-14.5,15.4-11.9c12.1,3.1,20,11.6,26.2,21.6
		c3.4,5.4,1.4,9.4-4.5,12.3c-14.2,7-26.7,16-35.4,29.7c-2.1,3.3-5.2,6-8.3,8.5c-6.6,5.3-8,18.4-2.3,24.7c3,3.4,8,4.5,13.1,0.4
		c10.9-8.7,22.3-4.6,33.7-3c9.3,1.3,18.6,3.1,27.9,4.3c8.2,1.1,16.5,1.6,24.8,2.4c6.2,0.6,11.6-1.2,15.5-6c7.1-8.7,18.3-9,27.5-0.3
		c3.7,3.6,7,7.6,10.2,11.6c2.9,3.6,3.2,7.5,0.3,11.4c-3.5,4.6-6.8,9.4-10.5,13.9c-5.2,6.6-12.3,6.7-19.5,4.9
		c-4.6-1.2-9.1-3.1-13.3-5.4c-6.6-3.5-13.4-5.1-20.4-2.2c-11.1,4.5-22.5,4.6-34.2,4.1c-6.9-0.3-14-0.2-20.8,0.9
		c-8,1.3-10.8,8.5-5.9,14.9c6.3,8.3,13,16.4,20.2,24c6.2,6.5,14.7,9.3,23.5,11c12.7,2.5,17.4,16.4,9.1,26.6
		c-2.5,3.1-5.4,5.9-8.4,8.5c-10.3,8.9-21.1,6.2-26.8-6.4c-3.3-7.3-6-15.7-11.3-21.3c-9.2-9.6-20.2-17.6-30.6-26
		c-1.9-1.5-5-1.6-7.5-2.5c-4.4-1.5-9.4-2.2-12.9-4.8c-7-5.1-14.9-6.3-22.9-7.1c-6.6-0.6-13.3-0.3-19.9-1.2
		c-6.3-0.9-12.6-2.5-18.6-4.7c-6.2-2.2-12-5.6-18.1-8.2c-7-3-13.8-6.3-19.2-12.1c-2.7-2.9-5.8-5.5-9.2-7.6
		c-8.8-5.3-11.6-15.2-17.8-22.2c-9.9-11.2-6.7-22.6-3.4-34.6c1.6-5.7,3.2-11.4,4.6-17.2c1.7-7.4,2.7-15.1,5-22.3
		c2.2-6.7,5.5-13,8.8-19.3c5.1-9.6,9.9-19.5,16-28.4c4.5-6.5,10.6-12,16.6-17.2c5.6-4.8,7.1-10.6,6.4-17.4
		c-0.8-7.4-6.2-10.1-11.8-5.3c-7,6.1-14.1,12.4-19.5,19.8c-9.6,13.1-18.3,26.8-26.6,40.7c-3.7,6.1-4.6,14-8.6,19.8
		c-8.2,11.7-9.9,24.1-8.5,37.8c0.5,4.5-0.6,9.7-2.4,13.9c-2.5,6.1-8.1,6.4-12,1.1c-5.3-7.2-9.5-15.5-15.8-21.8
		c-10.2-10.1-21.4-19.3-32.7-28.1c-14.5-11.3-29.5-22-44.5-32.6c-10.1-7.2-20.5-14.1-30.9-20.7c-20.5-13-41.2-25.6-61.7-38.5
		c-8.7-5.5-17.2-11.2-25.8-16.9c-0.1-0.1-0.3-0.2-0.4-0.3c-3.4-0.6-7.4-2.7-10.1-1.6c-3.5,1.4-2.6,5.9-1.8,9.4
		c1.3,5.5,4.4,9.5,9.6,11.8c16.1,7.2,31.4,15.7,45,27.1c4.4,3.7,9.7,6.4,14.6,9.5c17,10.8,34.3,21.3,51.1,32.6
		c9.2,6.2,17.5,13.5,26.2,20.5c13.1,10.7,26.7,20.8,39,32.4c8.9,8.3,16.2,18.4,24,27.9c8.5,10.3,16.7,20.9,25,31.4
		c7.1,8.9,4.6,28-3.6,35.6c-14.4,13.4-31.3,23.2-48.9,31.1c-22.3,10-45.1,19.7-70.5,18.4c-14.5-0.7-28.7-2.6-41.8-9.7
		c-2.6-1.4-5.6-2.1-8.3-3.3c-6.9-3.3-13.8-6.8-20.7-10.2c-4.4-2.2-8.9-4.4-13.1-7c-12.9-8.1-25.6-16.5-38.5-24.5
		c-2.9-1.8-6.2-3-9.5-3.8c-3.1-0.8-4.9,0.9-5.4,4.3c-1.3,8.5,3.1,15.9,10.9,19.8c7,3.4,13.5,7.6,20.3,11.3
		c14.9,8.2,29.9,16.4,44.8,24.6c2.8,1.5,5.6,2.9,8.3,4.5c12.1,7.5,26,8.2,39.6,10.1c18,2.5,35.8,0.2,53.6-2.1
		c5.1-0.7,10.4-2.4,15-4.8c13.7-7,27-14.7,40.6-21.9c3.6-1.9,7.6-3,11.6-4.3c14.7-4.7,24-14.7,29.1-29c1.1-3,1.7-6.1,3.1-8.9
		c3.1-6.2,6.1-10,14.9-7.9c5.5,1.3,10.9,3.2,13.4,9.2c2,4.8,1.4,9.1-2.8,12.6c-2.3,1.9-4.7,3.7-7.1,5.4c-1.9,1.4-4,2.5-5.8,3.9
		c-5.3,4.1-8.1,10.4-6.2,14.7c2.6,5.6,7.9,6.3,13.2,5.8c15.5-1.4,31-1.3,46.6-4c12.3-2.1,22.7-6.7,32.7-13.3c1.7-1.1,3.5-2,5.3-2.8
		c4.4-1.8,8-1.1,10.9,3c3.3,4.8,6.9,9.3,10.4,14c3.7,5.1,3.5,8.5-0.3,13.5c-2.2,2.9-4.1,6-6.1,9c-5,7.1-11.7,8.9-19.5,5.3
		c-1.4-0.6-2.7-1.3-4-2c-5.7-3.3-11.6-4.2-18.2-2.5c-6.4,1.7-13,2.7-19.4,4.1c-9,1.9-11.6,9-5.9,16.2c4.9,6.3,12.3,8.7,19.7,9.6
		c18.8,2.3,37.6,4.2,56.5,5.4c6.9,0.4,14-1.8,21.1-2.6c2.5-0.3,5.8-0.6,7.6,0.7c6,4.3,12.1,8.8,16.9,14.3c4.4,5,2.9,12.2-2,17.2
		c-3.4,3.4-6.9,6.7-10.7,9.8c-5.1,4.2-11.4,3.9-14.9-1.2c-7.2-10.4-17.3-14.6-29.2-13.6c-13.9,1.1-27.6,3.4-41.4,5.2
		c-1.4,0.2-2.9,0.8-4.2,1.5c-6.9,3.9-13.7,7.8-20.5,11.9c-5.1,3.1-5.7,5.2-3.1,10.6c4.9,10,13.2,15.8,23.6,19.3
		c3.7,1.3,7.4,2.9,10.7,5c9.1,5.7,9.5,17.7,1.2,24.3c-4.4,3.5-8.7,7.2-12.9,11c-4.4,3.9-7.6,4.1-12.4,0.7c-5.5-3.9-7.1-9.8-8.9-15.7
		c-3-9.5-5.6-19.3-14.3-25.5c-5.7-4-11.3-8.3-17.3-11.8c-15.6-9-31.4-17.5-47.1-26.3c-7.4-4.1-15-6.8-23.6-6.2
		c-2.9,0.2-6.3-1-8.9-2.5c-14.7-8.6-31-11.8-47.4-15.4c-4.8-1-9.8-2.5-13.9-5.1c-7.7-4.8-16.2-6.4-24.9-8c-5.1-1-10.1-2.8-15.1-4.6
		c-7.3-2.6-14.5-5.4-21.7-8.2c-7.3-2.9-14.7-5.8-21.9-9c-7.8-3.5-15.8-6.8-23.2-11.2c-13.2-7.9-26.7-15.6-38.8-25
		c-11.3-8.8-24.1-16.1-32.4-28.4c-5.3-7.8-7.9-15.9-3-24.7c5.5-9.8,10.8-19.9,17.6-28.8c2.5-3.3,9.1-4,13.9-5
		c9.5-2,19.4-2.6,28.7-5.3c10.6-3.1,20.6-1.4,30.9,0.2c9.3,1.4,18.8,1.8,28.2,3c4.4,0.6,8.8,1.4,12.9,3c9.7,3.7,19.3,7.7,28.7,12
		c6.9,3.2,13.5,6.9,20,10.8c6.4,3.9,12.7,4.5,16.5,1.1c5.3-4.7,3.4-16.8-3.7-20.5c-11-5.7-22.2-10.9-33.5-16
		c-3.6-1.6-7.7-1.8-11.5-3.1c-8-2.6-15.8-5.8-23.9-8.2c-5.8-1.8-11.9-3.9-17.8-3.9c-11.8-0.1-21.5-3.4-30.8-11.3
		c-13.5-11.4-24.8-24.4-35.5-38.3c-8.8-11.4-17.9-22.6-26.3-34.3c-3.2-4.4-4.8-10-7.2-15c-3-6.2-7.2-12.2-8.7-18.7
		c-2.1-9.3-2.8-19-2.9-28.5c-0.1-10.1,1.1-20.3,1.7-30.4c0.5-7.6,5.8-11.7,11.4-15.5c19.3-13,37.1-27.8,54.9-42.8
		c19.9-16.9,36.2-36.8,53-56.6c17.9-21.2,36.3-42.2,58.6-59c10.7-8.1,23.6-13.3,35.5-19.8c5.2-2.8,10.9-5,15.7-8.4
		c5.5-3.8,11.2-5.9,17.7-5.7c13.6,0.4,26-3.7,38.6-8.2c9.1-3.2,19-4.6,28.6-5.8c19.4-2.3,38.9-4.2,58.4-5.8
		c19.7-1.7,39.4-2.9,59.1-4.4c8.9-0.7,17.9-1.2,26.7-2.8c8.7-1.5,17.2-0.4,25.7,1c19.8,3.3,39.5,4.2,59-2.2
		c4.4-1.4,7.8-3.7,10.3-7.9c8.3-13.7,19.3-24.8,33.8-32c9.1-4.5,18.8-4.8,28-0.9c14,6,27.4,13.2,37.9,25c5.6,6.3,6.7,12.7,5.9,20.6
		c-0.8,7.9-0.9,15.8-0.6,23.7c0.1,2.5,1.9,5.5,3.9,7.1c12.2,10.5,24.9,20.1,40.4,25.4c2.9,1,5.9,3.5,7.5,6.1
		c6.5,10.4,13.3,20.8,18.3,31.9c2.3,5.1,2.1,12.2,0.9,17.9c-2.1,10.1-4.9,20.3-9.2,29.8c-3.4,7.5-9,14.2-14.2,20.8
		c-13.4,16.7-31,28.1-50.1,36.8c-16.4,7.6-33.9,13-50.8,19.5c-4.3,1.7-8.4,3.8-12.6,5.7c-3.8,1.7-7.4,3.8-11.3,5
		c-11.5,3.7-23.3,6.4-34.6,10.6c-11,4.1-21.8,3.2-32.8,1.5c-2.4-0.4-4.9-0.7-7.4-0.7c-3.9,0-7.9,0.5-9.2,5.1
		c-1.7,6-0.2,10.5,5.1,12.5c11.8,4.5,23.8,7.8,36.7,4.3c9.4-2.5,19.1-3.9,28.6-6.2c4.1-1,8.2-2.6,12.1-4.3
		c11.3-4.7,22.6-9.2,33.7-14.3c14.5-6.7,28.8-14,43.2-20.8c4.6-2.2,9.7-3.4,14.3-5.6c16.5-7.6,30.1-19,43-31.7
		c12-11.8,21-25.7,29.3-40c2.4-4.2,1.2-10.6,1.5-16c0.1-2-1-4.1-0.5-5.9c0.7-2.2,2.1-5,3.9-5.6c2.1-0.8,5.9-0.5,7.3,1
		c11.4,12.6,27.2,18.7,40.7,28.1c6.2,4.3,12,9.3,17.5,14.5c15.8,14.8,24.4,34.3,34.2,53c3.3,6.4,3,14.7,4.4,22.1
		c1,5.4,1.5,10.9,3.3,16c3.6,9.7,3.3,19.2,1.1,29.2c-2.3,10.5-3.4,21.2-5.6,31.7c-2.1,10.5-4.4,21-10.5,30.2
		c-1.5,2.3-2.8,4.9-3.4,7.6c-1.8,7.2-5.5,13.2-9.8,19.2c-5.9,8.1-10.5,17.3-16.7,25.1c-4.4,5.6-10.4,10.1-16.3,14.2
		c-7.3,5.1-15,9.7-22.9,13.7c-10.6,5.4-21.3,10.3-32.3,14.7c-4.3,1.7-9.4,2-14.2,2.1C796.4,732.2,784.1,732,771.7,732z M715.3,429.2
		c-0.3-3.2-0.3-6.4-0.8-9.5c-2.7-15.3-13.6-23.8-26-30.7c-5.7-3.1-12.1-4.3-18.3-1.8c-13.4,5.5-24.3,14.2-31,27.4
		c-2.6,5.1-4.9,10.5-6.8,15.9c-0.8,2.2-0.8,5.2,0,7.4c7.2,20,23.4,28.4,42.9,31.6c4.4,0.7,9.9-0.5,13.7-2.7
		c6.5-3.8,12.4-8.8,17.8-14c3.1-3,5.6-7.3,7.1-11.4C715.1,437.7,714.8,433.3,715.3,429.2z M594.8,387.6c0.5,8.4,2.8,13.2,6.3,17.9
		c2.5,3.3,5,3.2,6.5,0.2c2-4,2.9-8.5,4.1-12.9c0.8-3,0.5-6.8,2.3-8.9c5.5-6.5,11.4-12.9,18-18.2c4.8-3.8,11.2-5.5,16.6-8.6
		c10.3-5.7,20.8-6.3,31.4-1.7c15.1,6.5,23.8,19.7,33.2,32.1c4.3,5.6,12.1,6.1,16,0.3c0.9-1.4,1-4.8,0-5.7
		c-5.3-4.9-10.2-9.8-12.8-16.7c-0.2-0.4-0.6-0.8-1-1.1c-6.4-5.6-12.8-11.4-19.4-16.8c-6.1-4.9-11.8-10.8-20.4-11.6
		c-12.2-1.2-23.6,0.2-34,7.7c-9.2,6.6-20.9,9.5-28.3,19.1c-3.5,4.6-8.4,8.1-11.9,12.8C598.4,379.7,596.3,384.8,594.8,387.6z"/>
	<path d="M601.5,75c-1-11.2-1.8-21.8-3.1-32.3c-1-7.9,0.1-10.8,6.6-15c3.2-2.1,5.8-5.2,9.2-6.7c2.7-1.2,6.6-1.7,9.1-0.6
		c5.5,2.3,10.7,5.4,15.5,8.9c6.9,4.8,10.4,13.1,5.4,21.7c-4.9,8.3-10.1,16.4-14.1,25.1c-2.2,4.7-2.9,10.4-3.5,15.7
		c-0.9,8.2-1.6,16.6-1.6,24.9c0,9.3,5.8,15,14,14.3c2.3-0.2,4.9-1.2,6.8-2.6c7.6-5.5,15.3-11.1,22.5-17.1
		c7.9-6.6,15.5-13.5,23.1-20.5c6.6-6.1,9.3-14,9.3-22.8c0-5,2.1-8.1,6.9-8.6c6.8-0.7,13.7-1.2,20.6-1.4c6.7-0.2,10.8,4.1,14.6,9
		c11.8,14.9,9,14.1-2.4,25.2c-2.7,2.6-6.5,4.6-10.1,5.8c-9.7,3.2-18.9,6.8-26.5,14c-4.1,3.9-10,5.8-14.6,9.3
		c-15.5,11.6-29,24.9-39.6,41.5c-6.2,9.9-11.7,19.5-13.4,31.1c-0.9,6,1.6,10.6,6.8,13.7c6.3,3.7,13.2,4.4,20.2,3.3
		c7.3-1.2,14.8-2.5,21.7-5c4.9-1.8,9.3-5.5,13.4-9c6.5-5.6,10.3-5.2,14.6,2.2c2,3.4,4.4,6.6,6.5,10c3.8,6.1,3.7,14.2-0.4,19.7
		c-4.2,5.7-11.1,8.3-18.6,5.3c-19.4-7.8-36.7-2-53.3,7.7c-9.1,5.4-17.8,11.5-26.3,17.9c-4.4,3.2-8,7.5-11.7,11.5
		c-4.5,4.8-9.9,7-16.4,7.1c-4.8,0.1-9.7,0.2-14.5,0c-10.8-0.3-15.1-7.2-10.9-17.1c1.4-3.2,2.8-6.3,4-9.6c1.7-4.5-0.1-7.7-5.3-11.5
		c-3.9-2.9-7.4-2.4-9.9,1.2c-4.8,6.9-9.7,13.8-13.4,21.3c-6.8,13.6-11.7,16-26.9,14c-17.4-2.4-34.8-1.4-52.2,1.2
		c-3.8,0.6-8.2-0.2-11.8-1.8c-3.6-1.6-3.9-6.5-0.7-8.7c14.3-9.4,19.4-25.4,27.8-38.9c9.8-15.6,21.8-28.6,38.4-36.1
		c10.3-4.7,19.6-10.5,27.5-18.1c12.3-12,24.4-24.4,34.8-38c7.5-9.8,13.4-21.3,17.6-32.9C601,94.1,600.5,84,601.5,75z"/>
	<path d="M250.6,259.8c9.7,1.1,19.5,1.8,29.2,3.4c6.8,1.2,11.7,6,16,11.2c4.5,5.5,9.5,10.7,13.2,16.7c4.6,7.4,2.9,12.1-4.9,16.2
		c-11.1,5.9-22.4,11.5-33.4,17.5c-19.2,10.6-36.4,23.9-51.2,40c-11.7,12.8-22.8,26.2-34,39.4c-5.5,6.6-10.4,13.7-16,20.2
		c-4.5,5.2-9.5,10.2-14.7,14.7c-1.4,1.2-5.1,1.3-6.8,0.3c-1.2-0.7-1.7-4.6-0.9-6.2c3.6-7.4,7.2-15,12-21.5
		c4.3-5.8,8.7-11.4,12.4-17.8c6.4-11.1,14.6-21.3,22.1-31.7c7.2-9.9,14.3-19.9,21.9-29.6c7.8-10,16.8-18.8,27.5-25.8
		c4-2.6,7.2-6.7,10.2-10.5c1.9-2.4,4.2-5.4,1.4-8.8c-3-3.7-7-5.4-11.5-3.9c-3.7,1.2-7.2,3.2-10.6,5.3c-12.7,7.6-22.9,17.8-31.7,29.7
		c-12.3,16.7-25.3,32.8-37.3,49.7c-8.9,12.6-16,26.4-24.8,39.1c-7.9,11.3-11.7,23.9-15,37c-2.2,8.7-5,17.6-9.2,25.5
		c-2.6,4.9-8,8.4-12.5,12.2c-3.6,3-7.5,5.6-11.5,8.2c-4.3,2.9-8.5,6.4-13.2,8.1c-6.1,2.2-10.3-1.4-10.5-8.1
		c-0.4-9.2,1.8-17.5,7.8-25c5.5-6.8,9.6-14.8,15.2-21.5c14.7-17.4,26.9-36.6,38.7-55.9c4.7-7.6,9-15.4,13.9-22.9
		c3.1-4.8,6.6-9.5,10.3-13.9c14.4-16.9,28.7-34.1,43.6-50.5c7.8-8.6,17-15.9,25.7-23.6c4.5-4,9.3-7.6,13.8-11.4
		C240.3,261.9,244.7,259,250.6,259.8z"/>
	<path d="M393.2,277.2c0.1,11.3-13.7,22.3-23.8,17.9c-8.3-3.6-14.6-1.5-21.4,2.9c-8.1,5.1-17.2,1.3-18.8-7.4
		c-0.4-2.3-0.2-4.8-1.1-6.8c-1.8-3.9-3.8-8-6.5-11.3c-5.4-6.3-11.6-11.9-17.1-18.1c-4.3-4.9-3.9-9.2,1.1-13.3
		c11.2-9.2,19.8-20.7,26.8-33.1c3.9-6.9,7.6-13.8,12.8-19.9c1.8-2.1,2.9-4.8,4.2-7.3c5.3-9.7,10.6-19.5,15.9-29.2
		c2.4-4.4,5.8-6,9.9-3.3c8.7,5.7,17.2,11.9,25.1,18.6c4.2,3.6,2.8,12.4-2.1,15.9c-3.2,2.3-6.8,4.5-10.5,5.5
		c-12.2,3.1-20.5,10.8-27.7,20.7c-6.7,9.1-13.3,18.2-16.8,29.1c-0.7,2.3-2.5,4.3-4.2,6.1c-6.7,7.4-7.7,16.4-6.9,25.6
		c0.2,2,3,5.2,4.7,5.2c4.3,0,9-0.5,12.7-2.5c3.8-2,6.9-5.7,9.8-9.1c5.2-6.2,9.8-7.8,17.5-5.4C388.1,261.6,393.1,267.4,393.2,277.2z"
		/>
	<path d="M265.2,145.8c11.5,0.1,26.2,14.1,25.8,24.7c0,1,0,2-0.4,2.9c-3.9,10-4,20.4-3,30.9c1,10.5,1.5,21.1,2.4,31.7
		c0.5,6.2-4.3,7.8-8.3,9.8c-8.8,4.2-21.9,1-23.2-9.8c-0.3-3.1,0.4-6.2,0.5-9.4c0.4-8.3,0.7-16.6,1.1-24.9c0.2-5.7-2.3-10.1-6.4-13.9
		c-12.8-11.8-11.1-22.9-4.6-34.8C251.3,149,259.2,145.8,265.2,145.8z"/>
	<path fill="#FFFFFF" d="M715.3,429.2c-0.4,4.1-0.1,8.4-1.5,12.2c-1.5,4.1-3.9,8.4-7.1,11.4c-5.4,5.2-11.4,10.2-17.8,14
		c-3.8,2.3-9.4,3.5-13.7,2.7c-19.5-3.2-35.7-11.6-42.9-31.6c-0.8-2.2-0.7-5.2,0-7.4c1.9-5.4,4.2-10.8,6.8-15.9
		c6.7-13.2,17.6-21.9,31-27.4c6.2-2.6,12.6-1.4,18.3,1.8c12.5,6.9,23.4,15.4,26,30.7C715,422.8,715,426,715.3,429.2z M699.3,429.9
		c0.1-15.1-18-25.5-29.5-19c-3.5,2-5.3,5.1-3.8,8.8c2.9,7.2,2.2,13.6-1.8,20.3c-3.6,6.1,0.6,12.3,7.8,11.8c4.7-0.3,9.7-1.4,13.8-3.6
		C693.8,444,698.5,437.1,699.3,429.9z"/>
	<path fill="#FFFFFF" d="M594.8,387.6c1.5-2.9,3.6-7.9,6.7-12.2c3.5-4.6,8.4-8.2,11.9-12.8c7.4-9.6,19.1-12.4,28.3-19.1
		c10.4-7.5,21.8-8.9,34-7.7c8.6,0.8,14.3,6.7,20.4,11.6c6.7,5.4,13,11.2,19.4,16.8c0.4,0.3,0.8,0.7,1,1.1
		c2.6,6.8,7.6,11.8,12.8,16.7c1,0.9,0.9,4.3,0,5.7c-3.9,5.8-11.8,5.2-16-0.3c-9.4-12.4-18.2-25.6-33.2-32.1
		c-10.6-4.6-21.1-4.1-31.4,1.7c-5.4,3-11.8,4.8-16.6,8.6c-6.6,5.3-12.5,11.7-18,18.2c-1.8,2.1-1.5,5.9-2.3,8.9
		c-1.2,4.4-2.1,8.9-4.1,12.9c-1.5,3-4,3.1-6.5-0.2C597.6,400.8,595.3,396,594.8,387.6z"/>
	<path d="M699.3,429.9c-0.8,7.2-5.5,14.1-13.4,18.3c-4.1,2.2-9.1,3.2-13.8,3.6c-7.2,0.5-11.5-5.7-7.8-11.8
		c4.1-6.8,4.7-13.1,1.8-20.3c-1.5-3.7,0.3-6.8,3.8-8.8C681.3,404.3,699.4,414.8,699.3,429.9z"/>
</g>
</svg>
